<svg version="1.1" xmlns="http://www.w3.org/2000/svg" style="display: block;" viewBox="0 0 2048 2048" width="1024" height="1024" preserveAspectRatio="none" xmlns:c2pa="http://c2pa.org/manifest"><metadata><c2pa:manifest>AAAMZ2p1bWIAAAAeanVtZGMycGEAEQAQgAAAqgA4m3EDYzJwYQAAAAxBanVtYgAAAEdqdW1kYzJtYQARABCAAACqADibcQN1cm46YzJwYTpmM2ZjYWNmNC1jYWQ0LTQ3NTYtOTcwMy1mYzlkYzA4MWRhZGEAAAAB4mp1bWIAAAApanVtZGMyYXMAEQAQgAAAqgA4m3EDYzJwYS5hc3NlcnRpb25zAAAAAO1qdW1iAAAAQWp1bWRjYm9yABEAEIAAAKoAOJtxE2MycGEuYWN0aW9ucy52MgAAAAAYYzJzaEBbFUPVRSGPZlcBKEn8ExYAAACkY2JvcqFnYWN0aW9uc4GjZmFjdGlvbmxjMnBhLmNyZWF0ZWRxZGlnaXRhbFNvdXJjZVR5cGV4Rmh0dHA6Ly9jdi5pcHRjLm9yZy9uZXdzY29kZXMvZGlnaXRhbHNvdXJjZXR5cGUvdHJhaW5lZEFsZ29yaXRobWljTWVkaWFrZGVzY3JpcHRpb252Q3JlYXRlZCBieSBSZWNyYWZ0IEFJLgAAAMRqdW1iAAAAQGp1bWRjYm9yABEAEIAAAKoAOJtxE2MycGEuaGFzaC5kYXRhAAAAABhjMnNou/7vAHlULRVC5oMxpuww7wAAAHxjYm9ypWpleGNsdXNpb25zgaJlc3RhcnQY22ZsZW5ndGgZEIxkbmFtZW5qdW1iZiBtYW5pZmVzdGNhbGdmc2hhMjU2ZGhhc2hYIMOasBDanhgHGxeZevLlXoDHHRm8lMXo57yd3+aX0bBqY3BhZEkAAAAAAAAAAAAAAAI0anVtYgAAACdqdW1kYzJjbAARABCAAACqADibcQNjMnBhLmNsYWltLnYyAAAAAgVjYm9ypmppbnN0YW5jZUlEeCx4bXA6aWlkOjdhNzMwZTVmLTAwZWMtNDVmOC1hOTliLWU2ZmE1ZTgzM2IxNXRjbGFpbV9nZW5lcmF0b3JfaW5mb6NkbmFtZWpyZWNyYWZ0LmFpZ3ZlcnNpb254KDgxY2U4MmUyYzVjM2NiZmJlOGM2ZmJlMTc5ZDVmOGQ5MWM0MDljZTF3b3JnLmNvbnRlbnRhdXRoLmMycGFfcnNmMC45MC43aXNpZ25hdHVyZXhNc2VsZiNqdW1iZj0vYzJwYS91cm46YzJwYTpmM2ZjYWNmNC1jYWQ0LTQ3NTYtOTcwMy1mYzlkYzA4MWRhZGEvYzJwYS5zaWduYXR1cmVyY3JlYXRlZF9hc3NlcnRpb25zgqJjdXJseCpzZWxmI2p1bWJmPWMycGEuYXNzZXJ0aW9ucy9jMnBhLmFjdGlvbnMudjJkaGFzaFggVykpFW0qkKtmg/hL7bIKTEXm3q6AfWlIqkEk642FpbyiY3VybHgpc2VsZiNqdW1iZj1jMnBhLmFzc2VydGlvbnMvYzJwYS5oYXNoLmRhdGFkaGFzaFggpSP/3J6hHOdcrMMvvbkaaMXZwxfhUIELpHTDMFI7acdoZGM6dGl0bGV4GlJlY3JhZnQgQUkgR2VuZXJhdGVkIEltYWdlY2FsZ2ZzaGEyNTYAAAfcanVtYgAAAChqdW1kYzJjcwARABCAAACqADibcQNjMnBhLnNpZ25hdHVyZQAAAAesY2JvctKEWQOwogEmGCGCWQHnMIIB4zCCAYmgAwIBAgIJALfeWmNDUW56MAoGCCqGSM49BAMCMEAxHzAdBgNVBAMMFlJlY3JhZnQgU3RhZ2luZyBEZXYgQ0ExEDAOBgNVBAoMB1JlY3JhZnQxCzAJBgNVBAYTAlVTMB4XDTI2MDYxMjE5NDM1MFoXDTI3MDYxMjE5NDM1MFowNzELMAkGA1UEBhMCVVMxEzARBgNVBAoTClJlY3JhZnQgQUkxEzARBgNVBAMTCnJlY3JhZnQuYWkwWTATBgcqhkjOPQIBBggqhkjOPQMBBwNCAARKaTVbACsg/DeG3LeOxYdID/VA6EFG73E6Oknb+KIiCFJygRUz4ueN2z/t2qYb6CIUvS8RvgOiiClfoqsYtw81o3UwczAMBgNVHRMBAf8EAjAAMA4GA1UdDwEB/wQEAwIGwDATBgNVHSUEDDAKBggrBgEFBQcDBDAdBgNVHQ4EFgQULzHpBen96SL1y4IPHa8MkMshXf0wHwYDVR0jBBgwFoAUAgsqOBrKqpdK//m/kxZo7ZR4ebcwCgYIKoZIzj0EAwIDSAAwRQIgU8hKW0aXvvk8SQgVFNkax69Ym9ae8GsT2RZTQw+B51ACIQC0D4BkEoRD4N0r2ZRkNy0HZaW3WICy/QZGN95ilF4yzFkBvTCCAbkwggFfoAMCAQICCQCc+Wg7T6ATbzAKBggqhkjOPQQDAjBAMR8wHQYDVQQDDBZSZWNyYWZ0IFN0YWdpbmcgRGV2IENBMRAwDgYDVQQKDAdSZWNyYWZ0MQswCQYDVQQGEwJVUzAeFw0yNjA2MTIxOTQwMTZaFw0yODA2MTExOTQwMTZaMEAxHzAdBgNVBAMMFlJlY3JhZnQgU3RhZ2luZyBEZXYgQ0ExEDAOBgNVBAoMB1JlY3JhZnQxCzAJBgNVBAYTAlVTMFkwEwYHKoZIzj0CAQYIKoZIzj0DAQcDQgAEQ9IQBlcVbKaKPYrQSfOhL/00s7xUDC7RinIuLO/I1k99y9yh6oWF9kPxaP+tx1v1PeOL3yrVquJ730H0ZGiDyqNCMEAwDwYDVR0TAQH/BAUwAwEB/zAOBgNVHQ8BAf8EBAMCAYYwHQYDVR0OBBYEFAILKjgayqqXSv/5v5MWaO2UeHm3MAoGCCqGSM49BAMCA0gAMEUCIFQwNImLlYDeQhjgF+ZiqTbgcuzSqmOJw3Q2lQ/hu83FAiEA9O8cLm/xfoVLqB4jtdbuHzi3WL+p2RN+DRGkwpYswVuhY3BhZFkDpAAAAAAAAAAAAAAAAAAAAAAAAAAAAAAAAAAAAAAAAAAAAAAAAAAAAAAAAAAAAAAAAAAAAAAAAAAAAAAAAAAAAAAAAAAAAAAAAAAAAAAAAAAAAAAAAAAAAAAAAAAAAAAAAAAAAAAAAAAAAAAAAAAAAAAAAAAAAAAAAAAAAAAAAAAAAAAAAAAAAAAAAAAAAAAAAAAAAAAAAAAAAAAAAAAAAAAAAAAAAAAAAAAAAAAAAAAAAAAAAAAAAAAAAAAAAAAAAAAAAAAAAAAAAAAAAAAAAAAAAAAAAAAAAAAAAAAAAAAAAAAAAAAAAAAAAAAAAAAAAAAAAAAAAAAAAAAAAAAAAAAAAAAAAAAAAAAAAAAAAAAAAAAAAAAAAAAAAAAAAAAAAAAAAAAAAAAAAAAAAAAAAAAAAAAAAAAAAAAAAAAAAAAAAAAAAAAAAAAAAAAAAAAAAAAAAAAAAAAAAAAAAAAAAAAAAAAAAAAAAAAAAAAAAAAAAAAAAAAAAAAAAAAAAAAAAAAAAAAAAAAAAAAAAAAAAAAAAAAAAAAAAAAAAAAAAAAAAAAAAAAAAAAAAAAAAAAAAAAAAAAAAAAAAAAAAAAAAAAAAAAAAAAAAAAAAAAAAAAAAAAAAAAAAAAAAAAAAAAAAAAAAAAAAAAAAAAAAAAAAAAAAAAAAAAAAAAAAAAAAAAAAAAAAAAAAAAAAAAAAAAAAAAAAAAAAAAAAAAAAAAAAAAAAAAAAAAAAAAAAAAAAAAAAAAAAAAAAAAAAAAAAAAAAAAAAAAAAAAAAAAAAAAAAAAAAAAAAAAAAAAAAAAAAAAAAAAAAAAAAAAAAAAAAAAAAAAAAAAAAAAAAAAAAAAAAAAAAAAAAAAAAAAAAAAAAAAAAAAAAAAAAAAAAAAAAAAAAAAAAAAAAAAAAAAAAAAAAAAAAAAAAAAAAAAAAAAAAAAAAAAAAAAAAAAAAAAAAAAAAAAAAAAAAAAAAAAAAAAAAAAAAAAAAAAAAAAAAAAAAAAAAAAAAAAAAAAAAAAAAAAAAAAAAAAAAAAAAAAAAAAAAAAAAAAAAAAAAAAAAAAAAAAAAAAAAAAAAAAAAAAAAAAAAAAAAAAAAAAAAAAAAAAAAAAAAAAAAAAAAAAAAAAAAAAAAAAAAAAAAAAAAAAAAAAAAAAAAAAAAAAAAAAAAAAAAAAAAAAAAAAAAAAAAAAAAAAAAAAAAAAAAAAAAAAAAAAAAAAAAAAAAAAAAAAAAAAAAAAAAAAA9lhAfU1dRg+TuSUSR05cZFSQTZGcN5XavhxMO3lJ8naJ6jxxbSJByVKt56FkkHO9ayUp2TK9vrY3ddtzTckhZ0jEJA==</c2pa:manifest></metadata>
<path transform="translate(0,0)" fill="rgb(227,220,238)" d="M 0 0 L 2048 0 L 2048 2048 L 0 2048 L 0 0 z"/>
<path transform="translate(0,0)" fill="rgb(156,141,184)" d="M 835.097 209.809 C 925.985 189.193 1002.17 216.595 1024.32 313.457 C 1032.63 275.46 1046.13 247.448 1079.73 225.253 C 1121.78 197.468 1165.27 200.552 1212.38 209.897 C 1213.92 258.308 1208.51 302.864 1173.97 339.515 C 1135.97 379.837 1089.73 384.442 1038.01 382.735 C 1038.08 403.283 1037.46 429.761 1038.43 449.83 C 1060.59 451.605 1082.48 453.506 1104.11 458.822 C 1371.45 524.531 1524.13 792.472 1585.69 1039.46 C 1604.27 1044.82 1623.58 1049.83 1641.85 1056.5 C 1706.75 1080.22 1768.97 1121.09 1803.32 1182.55 C 1819.94 1212.29 1815.22 1237.96 1783.43 1253.46 C 1742.32 1273.5 1680.14 1270.1 1638.08 1255.79 C 1632.65 1253.92 1627.28 1251.93 1621.95 1249.81 C 1624.62 1276.45 1626.57 1303.16 1627.81 1329.91 C 1634.13 1443.44 1627.64 1562.3 1553.35 1654.97 C 1504.42 1716.01 1435.78 1756.68 1362.53 1781.86 C 1344.16 1788.18 1324.6 1791.82 1308.21 1797.26 C 1310.7 1793.9 1324.34 1785.34 1329 1781.54 C 1338.21 1773.94 1346.67 1765.49 1354.27 1756.29 C 1404.08 1695.51 1417.19 1600.44 1409.03 1524.09 C 1396.82 1409.79 1342.36 1299.88 1252.52 1227.07 C 1179.56 1166.79 1085.36 1138.52 991.267 1148.66 C 889.812 1159.5 806.379 1210.39 742.077 1288.96 C 638.279 1415.79 591.169 1670.27 734.834 1785.57 C 737.745 1787.54 738.282 1787.7 740.614 1790.42 C 738.123 1789.73 735.269 1789.17 732.718 1788.61 C 660.253 1768.33 602.243 1746.26 542.851 1698.74 C 428.893 1607.56 409.931 1462.99 421.66 1326.22 C 423.77 1301.61 428.257 1276.64 431.9 1251.85 C 399.978 1265.01 384.624 1271.54 350.789 1275.6 C 264.827 1285.9 209.725 1237.05 272.56 1159.22 C 327.175 1091.1 392.448 1057.43 475.269 1035.47 C 484.539 999.676 494.153 964.643 505.807 929.479 C 578.802 709.241 758.6 464.901 1010.97 450.217 C 1011.07 427.776 1010.96 405.334 1010.63 382.894 C 962.318 385.379 920.225 380.884 882.513 347.504 C 840.161 310.017 834.31 263.062 835.097 209.809 z"/>
<path transform="translate(0,0)" fill="rgb(46,38,34)" d="M 798.121 787.943 C 829.752 783.056 859.343 804.774 864.165 836.415 C 868.987 868.056 847.21 897.602 815.559 902.36 C 783.999 907.104 754.556 885.402 749.748 853.852 C 744.94 822.302 766.581 792.815 798.121 787.943 z"/>
<path transform="translate(0,0)" fill="rgb(46,38,34)" d="M 1243.75 788.065 C 1275.29 783.156 1304.84 804.748 1309.74 836.289 C 1314.64 867.83 1293.04 897.371 1261.5 902.265 C 1229.97 907.158 1200.44 885.567 1195.54 854.037 C 1190.64 822.507 1212.22 792.972 1243.75 788.065 z"/>
<path transform="translate(0,0)" fill="rgb(46,38,34)" d="M 952.937 875.087 C 959.186 874.871 965.664 874.933 972.15 875.036 C 1016.62 875.834 1062.22 873.541 1106.51 875.821 C 1115.97 876.309 1126.4 897.351 1104.15 906.952 C 1073.41 907.877 1040.83 906.638 1009.65 907.14 C 992.414 907.417 968.864 907.701 951.686 906.082 C 948.267 905.277 944.337 902.083 942.805 899.116 C 936.579 887.062 942.487 880.419 952.937 875.087 z"/>
</svg>