<svg version="1.1" xmlns="http://www.w3.org/2000/svg" style="display: block;" viewBox="0 0 2048 2048" width="1024" height="1024" preserveAspectRatio="none" xmlns:c2pa="http://c2pa.org/manifest"><metadata><c2pa:manifest>AAAMZ2p1bWIAAAAeanVtZGMycGEAEQAQgAAAqgA4m3EDYzJwYQAAAAxBanVtYgAAAEdqdW1kYzJtYQARABCAAACqADibcQN1cm46YzJwYTo5ZjFjOWZiZi1hYmYxLTQwODYtOWYwYy0zNjZiNzRmYjBmOTYAAAAB4mp1bWIAAAApanVtZGMyYXMAEQAQgAAAqgA4m3EDYzJwYS5hc3NlcnRpb25zAAAAAO1qdW1iAAAAQWp1bWRjYm9yABEAEIAAAKoAOJtxE2MycGEuYWN0aW9ucy52MgAAAAAYYzJzaPRuSlUBXGIEhYWGxHHghR8AAACkY2JvcqFnYWN0aW9uc4GjZmFjdGlvbmxjMnBhLmNyZWF0ZWRxZGlnaXRhbFNvdXJjZVR5cGV4Rmh0dHA6Ly9jdi5pcHRjLm9yZy9uZXdzY29kZXMvZGlnaXRhbHNvdXJjZXR5cGUvdHJhaW5lZEFsZ29yaXRobWljTWVkaWFrZGVzY3JpcHRpb252Q3JlYXRlZCBieSBSZWNyYWZ0IEFJLgAAAMRqdW1iAAAAQGp1bWRjYm9yABEAEIAAAKoAOJtxE2MycGEuaGFzaC5kYXRhAAAAABhjMnNoqxDnbSbLbdKDkOXIYauvIQAAAHxjYm9ypWpleGNsdXNpb25zgaJlc3RhcnQY22ZsZW5ndGgZEIxkbmFtZW5qdW1iZiBtYW5pZmVzdGNhbGdmc2hhMjU2ZGhhc2hYIKoabWI7k55O4PNdRGTwL2/IOXyph1nQi69hIGtEMAlSY3BhZEkAAAAAAAAAAAAAAAI0anVtYgAAACdqdW1kYzJjbAARABCAAACqADibcQNjMnBhLmNsYWltLnYyAAAAAgVjYm9ypmppbnN0YW5jZUlEeCx4bXA6aWlkOmI5OWQ4NThmLTA0YjItNDA3ZS05MDY5LWEwYzlhNTA2NWRjOHRjbGFpbV9nZW5lcmF0b3JfaW5mb6NkbmFtZWpyZWNyYWZ0LmFpZ3ZlcnNpb254KDgxY2U4MmUyYzVjM2NiZmJlOGM2ZmJlMTc5ZDVmOGQ5MWM0MDljZTF3b3JnLmNvbnRlbnRhdXRoLmMycGFfcnNmMC45MC43aXNpZ25hdHVyZXhNc2VsZiNqdW1iZj0vYzJwYS91cm46YzJwYTo5ZjFjOWZiZi1hYmYxLTQwODYtOWYwYy0zNjZiNzRmYjBmOTYvYzJwYS5zaWduYXR1cmVyY3JlYXRlZF9hc3NlcnRpb25zgqJjdXJseCpzZWxmI2p1bWJmPWMycGEuYXNzZXJ0aW9ucy9jMnBhLmFjdGlvbnMudjJkaGFzaFggCjjqwQqqLzt848cB1/FdX2+YA3U65MjvuCl3raYccZKiY3VybHgpc2VsZiNqdW1iZj1jMnBhLmFzc2VydGlvbnMvYzJwYS5oYXNoLmRhdGFkaGFzaFgg0yojlNH23EQQ+ddeiHvVqYlDSjBlYxN62ORu5IDQNNJoZGM6dGl0bGV4GlJlY3JhZnQgQUkgR2VuZXJhdGVkIEltYWdlY2FsZ2ZzaGEyNTYAAAfcanVtYgAAAChqdW1kYzJjcwARABCAAACqADibcQNjMnBhLnNpZ25hdHVyZQAAAAesY2JvctKEWQOwogEmGCGCWQHnMIIB4zCCAYmgAwIBAgIJALfeWmNDUW56MAoGCCqGSM49BAMCMEAxHzAdBgNVBAMMFlJlY3JhZnQgU3RhZ2luZyBEZXYgQ0ExEDAOBgNVBAoMB1JlY3JhZnQxCzAJBgNVBAYTAlVTMB4XDTI2MDYxMjE5NDM1MFoXDTI3MDYxMjE5NDM1MFowNzELMAkGA1UEBhMCVVMxEzARBgNVBAoTClJlY3JhZnQgQUkxEzARBgNVBAMTCnJlY3JhZnQuYWkwWTATBgcqhkjOPQIBBggqhkjOPQMBBwNCAARKaTVbACsg/DeG3LeOxYdID/VA6EFG73E6Oknb+KIiCFJygRUz4ueN2z/t2qYb6CIUvS8RvgOiiClfoqsYtw81o3UwczAMBgNVHRMBAf8EAjAAMA4GA1UdDwEB/wQEAwIGwDATBgNVHSUEDDAKBggrBgEFBQcDBDAdBgNVHQ4EFgQULzHpBen96SL1y4IPHa8MkMshXf0wHwYDVR0jBBgwFoAUAgsqOBrKqpdK//m/kxZo7ZR4ebcwCgYIKoZIzj0EAwIDSAAwRQIgU8hKW0aXvvk8SQgVFNkax69Ym9ae8GsT2RZTQw+B51ACIQC0D4BkEoRD4N0r2ZRkNy0HZaW3WICy/QZGN95ilF4yzFkBvTCCAbkwggFfoAMCAQICCQCc+Wg7T6ATbzAKBggqhkjOPQQDAjBAMR8wHQYDVQQDDBZSZWNyYWZ0IFN0YWdpbmcgRGV2IENBMRAwDgYDVQQKDAdSZWNyYWZ0MQswCQYDVQQGEwJVUzAeFw0yNjA2MTIxOTQwMTZaFw0yODA2MTExOTQwMTZaMEAxHzAdBgNVBAMMFlJlY3JhZnQgU3RhZ2luZyBEZXYgQ0ExEDAOBgNVBAoMB1JlY3JhZnQxCzAJBgNVBAYTAlVTMFkwEwYHKoZIzj0CAQYIKoZIzj0DAQcDQgAEQ9IQBlcVbKaKPYrQSfOhL/00s7xUDC7RinIuLO/I1k99y9yh6oWF9kPxaP+tx1v1PeOL3yrVquJ730H0ZGiDyqNCMEAwDwYDVR0TAQH/BAUwAwEB/zAOBgNVHQ8BAf8EBAMCAYYwHQYDVR0OBBYEFAILKjgayqqXSv/5v5MWaO2UeHm3MAoGCCqGSM49BAMCA0gAMEUCIFQwNImLlYDeQhjgF+ZiqTbgcuzSqmOJw3Q2lQ/hu83FAiEA9O8cLm/xfoVLqB4jtdbuHzi3WL+p2RN+DRGkwpYswVuhY3BhZFkDpAAAAAAAAAAAAAAAAAAAAAAAAAAAAAAAAAAAAAAAAAAAAAAAAAAAAAAAAAAAAAAAAAAAAAAAAAAAAAAAAAAAAAAAAAAAAAAAAAAAAAAAAAAAAAAAAAAAAAAAAAAAAAAAAAAAAAAAAAAAAAAAAAAAAAAAAAAAAAAAAAAAAAAAAAAAAAAAAAAAAAAAAAAAAAAAAAAAAAAAAAAAAAAAAAAAAAAAAAAAAAAAAAAAAAAAAAAAAAAAAAAAAAAAAAAAAAAAAAAAAAAAAAAAAAAAAAAAAAAAAAAAAAAAAAAAAAAAAAAAAAAAAAAAAAAAAAAAAAAAAAAAAAAAAAAAAAAAAAAAAAAAAAAAAAAAAAAAAAAAAAAAAAAAAAAAAAAAAAAAAAAAAAAAAAAAAAAAAAAAAAAAAAAAAAAAAAAAAAAAAAAAAAAAAAAAAAAAAAAAAAAAAAAAAAAAAAAAAAAAAAAAAAAAAAAAAAAAAAAAAAAAAAAAAAAAAAAAAAAAAAAAAAAAAAAAAAAAAAAAAAAAAAAAAAAAAAAAAAAAAAAAAAAAAAAAAAAAAAAAAAAAAAAAAAAAAAAAAAAAAAAAAAAAAAAAAAAAAAAAAAAAAAAAAAAAAAAAAAAAAAAAAAAAAAAAAAAAAAAAAAAAAAAAAAAAAAAAAAAAAAAAAAAAAAAAAAAAAAAAAAAAAAAAAAAAAAAAAAAAAAAAAAAAAAAAAAAAAAAAAAAAAAAAAAAAAAAAAAAAAAAAAAAAAAAAAAAAAAAAAAAAAAAAAAAAAAAAAAAAAAAAAAAAAAAAAAAAAAAAAAAAAAAAAAAAAAAAAAAAAAAAAAAAAAAAAAAAAAAAAAAAAAAAAAAAAAAAAAAAAAAAAAAAAAAAAAAAAAAAAAAAAAAAAAAAAAAAAAAAAAAAAAAAAAAAAAAAAAAAAAAAAAAAAAAAAAAAAAAAAAAAAAAAAAAAAAAAAAAAAAAAAAAAAAAAAAAAAAAAAAAAAAAAAAAAAAAAAAAAAAAAAAAAAAAAAAAAAAAAAAAAAAAAAAAAAAAAAAAAAAAAAAAAAAAAAAAAAAAAAAAAAAAAAAAAAAAAAAAAAAAAAAAAAAAAAAAAAAAAAAAAAAAAAAAAAAAAAAAAAAAAAAAAAAAAAAAAAAAAAAAAAAAAAAAAAAAAAAAAAAAAAAAAAAAAAAAAAAAAAAAAAAAAAAAAAAAAAAAAAAAAAAAAAAAAAAAAAAAAAAAAAAAAAAAAAAAAAAAAAAAA9lhAZeigDmcHUozfbEHHXABvmBFiOTK2JX78Kjr47IVW6fLm+70eiTceXxG+mKnLLdjRlcj41lgh+I87sArQDHbZfg==</c2pa:manifest></metadata>
<path transform="translate(0,0)" fill="rgb(214,235,220)" d="M 0 0 L 2048 0 L 2048 2048 L 0 2048 L 0 0 z"/>
<path transform="translate(0,0)" fill="rgb(127,184,154)" d="M 1028.68 432.939 L 1051.98 432.993 C 1071.98 434.493 1091.72 435.786 1111.37 439.133 C 1343.18 478.627 1490.91 689.943 1553.66 902.104 C 1567.81 949.923 1580.71 996.282 1588.44 1045.88 C 1666.58 1067.89 1726.6 1090.7 1783.68 1153.09 C 1894.29 1274 1737.44 1296.15 1644.68 1265.74 C 1631.26 1261.31 1618.24 1255.73 1605.79 1249.05 C 1606.99 1288.95 1610.77 1328.91 1610.94 1368.83 C 1611.14 1413.1 1604.45 1457.53 1598.04 1501.22 C 1596.6 1511.02 1595.26 1521.16 1593.17 1530.81 C 1582.44 1579.49 1558.58 1624.3 1524.18 1660.37 C 1478.54 1708.53 1419.15 1737.47 1355.77 1754.66 C 1356.52 1749.79 1360.16 1741.96 1362.3 1737.25 C 1454.78 1534.08 1335.05 1274.9 1111.23 1230.1 C 1022.32 1212.5 930.061 1230.62 854.416 1280.53 C 775.409 1334.08 720.567 1416.49 701.68 1510.05 C 687.269 1580.18 693.08 1652.97 718.437 1719.93 C 724.698 1736.91 731.456 1749.08 737.813 1764.54 C 669.523 1745 612.115 1722.08 562.873 1668.07 C 504.048 1603.55 487.95 1535.41 480.453 1451.44 C 477.968 1423.61 473.311 1394.99 473.967 1366.58 C 474.778 1331.41 478.265 1296.16 480.168 1261.06 C 465.253 1269.24 449.614 1276.03 433.45 1281.33 C 389.679 1295.55 327.826 1303.13 284.567 1282.25 C 256.751 1268.83 253.04 1238.79 267.265 1213.16 C 316.584 1124.29 398.422 1085.18 491.848 1058.79 C 498.41 1016.17 505.519 975.515 516.522 933.451 C 575.015 709.828 723.972 481.995 967.365 439.853 C 986.866 436.476 1008.8 432.971 1028.68 432.939 z"/>
<path transform="translate(0,0)" fill="rgb(46,38,34)" d="M 906.417 675.5 C 914.956 675.499 969.349 673.55 972.678 677.666 C 993.497 703.408 939.587 696.536 928.976 696.065 C 926.63 705.042 923.815 713.015 919.189 721.098 C 908.56 739.737 890.955 753.384 870.255 759.031 C 846.043 765.583 824.375 761.495 803.087 749.073 C 781.424 734.195 774.711 720.829 766.372 696.63 C 755.164 696.217 719.723 701.469 718.855 687.172 C 718.667 683.975 719.842 680.849 722.09 678.569 C 725.411 675.173 732.946 675.797 737.443 675.799 C 754.099 675.807 770.768 675.769 787.423 675.739 L 906.417 675.5 z"/>
<path transform="translate(0,0)" fill="rgb(46,38,34)" d="M 1209.27 675.495 L 1290.15 675.245 C 1303.72 675.216 1317.39 674.892 1330.93 675.616 C 1341.83 676.2 1345.23 686.487 1338.01 694.064 C 1329.79 697.713 1305.39 696.355 1294.56 696.374 C 1287.57 734.748 1257.38 758.044 1219.63 761.813 C 1173.17 762.007 1146.55 741.139 1133.7 696.614 C 1125.31 696.798 1117.31 696.988 1108.53 697.102 C 1099.07 697.223 1087.44 698.804 1085.1 686.131 C 1084.22 681.391 1089.87 676.472 1094.6 676.144 C 1107.32 675.262 1120.34 675.717 1133.17 675.739 L 1209.27 675.495 z"/>
<path transform="translate(0,0)" fill="rgb(46,38,34)" d="M 933.599 846.169 C 998.778 844.261 1067.9 846.136 1133.34 846.222 C 1143.21 846.235 1145.71 860.747 1133.61 867.179 C 1094.62 869.219 1048.37 866.702 1008.64 867.811 C 995.981 868.164 940.587 868.377 931.801 866.701 C 922.453 859.88 923.092 851.286 933.599 846.169 z"/>
</svg>