<svg version="1.1" xmlns="http://www.w3.org/2000/svg" style="display: block;" viewBox="0 0 2048 2048" width="1024" height="1024" preserveAspectRatio="none" xmlns:c2pa="http://c2pa.org/manifest"><metadata><c2pa:manifest>AAAMZ2p1bWIAAAAeanVtZGMycGEAEQAQgAAAqgA4m3EDYzJwYQAAAAxBanVtYgAAAEdqdW1kYzJtYQARABCAAACqADibcQN1cm46YzJwYToyODM3M2Q1YS05OGQ5LTRkYTItYmVjMS05YWRiY2VkNGY5OWYAAAAB4mp1bWIAAAApanVtZGMyYXMAEQAQgAAAqgA4m3EDYzJwYS5hc3NlcnRpb25zAAAAAO1qdW1iAAAAQWp1bWRjYm9yABEAEIAAAKoAOJtxE2MycGEuYWN0aW9ucy52MgAAAAAYYzJzaBqPHOgsTA49nXmNNlzbaOgAAACkY2JvcqFnYWN0aW9uc4GjZmFjdGlvbmxjMnBhLmNyZWF0ZWRxZGlnaXRhbFNvdXJjZVR5cGV4Rmh0dHA6Ly9jdi5pcHRjLm9yZy9uZXdzY29kZXMvZGlnaXRhbHNvdXJjZXR5cGUvdHJhaW5lZEFsZ29yaXRobWljTWVkaWFrZGVzY3JpcHRpb252Q3JlYXRlZCBieSBSZWNyYWZ0IEFJLgAAAMRqdW1iAAAAQGp1bWRjYm9yABEAEIAAAKoAOJtxE2MycGEuaGFzaC5kYXRhAAAAABhjMnNoeKUn7KFJ2+WtZkLpWoXr4AAAAHxjYm9ypWpleGNsdXNpb25zgaJlc3RhcnQY22ZsZW5ndGgZEIxkbmFtZW5qdW1iZiBtYW5pZmVzdGNhbGdmc2hhMjU2ZGhhc2hYIGMHNiP08XeFBAOrNCSsiZ7jRCjeV8srrWh2wBtKaKleY3BhZEkAAAAAAAAAAAAAAAI0anVtYgAAACdqdW1kYzJjbAARABCAAACqADibcQNjMnBhLmNsYWltLnYyAAAAAgVjYm9ypmppbnN0YW5jZUlEeCx4bXA6aWlkOmVmY2JlM2I3LTkyOTMtNGZjNC1iM2JjLTNiMGM0NzljNjIyY3RjbGFpbV9nZW5lcmF0b3JfaW5mb6NkbmFtZWpyZWNyYWZ0LmFpZ3ZlcnNpb254KDgxY2U4MmUyYzVjM2NiZmJlOGM2ZmJlMTc5ZDVmOGQ5MWM0MDljZTF3b3JnLmNvbnRlbnRhdXRoLmMycGFfcnNmMC45MC43aXNpZ25hdHVyZXhNc2VsZiNqdW1iZj0vYzJwYS91cm46YzJwYToyODM3M2Q1YS05OGQ5LTRkYTItYmVjMS05YWRiY2VkNGY5OWYvYzJwYS5zaWduYXR1cmVyY3JlYXRlZF9hc3NlcnRpb25zgqJjdXJseCpzZWxmI2p1bWJmPWMycGEuYXNzZXJ0aW9ucy9jMnBhLmFjdGlvbnMudjJkaGFzaFgg1oMPgQUukU1zKdjwP7chhrb06SooEOxrzOH8qrDottGiY3VybHgpc2VsZiNqdW1iZj1jMnBhLmFzc2VydGlvbnMvYzJwYS5oYXNoLmRhdGFkaGFzaFggN3qIezEt6jUxBRxD+XdXZ3z3fjFl//Cu/QliWwa5TN9oZGM6dGl0bGV4GlJlY3JhZnQgQUkgR2VuZXJhdGVkIEltYWdlY2FsZ2ZzaGEyNTYAAAfcanVtYgAAAChqdW1kYzJjcwARABCAAACqADibcQNjMnBhLnNpZ25hdHVyZQAAAAesY2JvctKEWQOwogEmGCGCWQHnMIIB4zCCAYmgAwIBAgIJALfeWmNDUW56MAoGCCqGSM49BAMCMEAxHzAdBgNVBAMMFlJlY3JhZnQgU3RhZ2luZyBEZXYgQ0ExEDAOBgNVBAoMB1JlY3JhZnQxCzAJBgNVBAYTAlVTMB4XDTI2MDYxMjE5NDM1MFoXDTI3MDYxMjE5NDM1MFowNzELMAkGA1UEBhMCVVMxEzARBgNVBAoTClJlY3JhZnQgQUkxEzARBgNVBAMTCnJlY3JhZnQuYWkwWTATBgcqhkjOPQIBBggqhkjOPQMBBwNCAARKaTVbACsg/DeG3LeOxYdID/VA6EFG73E6Oknb+KIiCFJygRUz4ueN2z/t2qYb6CIUvS8RvgOiiClfoqsYtw81o3UwczAMBgNVHRMBAf8EAjAAMA4GA1UdDwEB/wQEAwIGwDATBgNVHSUEDDAKBggrBgEFBQcDBDAdBgNVHQ4EFgQULzHpBen96SL1y4IPHa8MkMshXf0wHwYDVR0jBBgwFoAUAgsqOBrKqpdK//m/kxZo7ZR4ebcwCgYIKoZIzj0EAwIDSAAwRQIgU8hKW0aXvvk8SQgVFNkax69Ym9ae8GsT2RZTQw+B51ACIQC0D4BkEoRD4N0r2ZRkNy0HZaW3WICy/QZGN95ilF4yzFkBvTCCAbkwggFfoAMCAQICCQCc+Wg7T6ATbzAKBggqhkjOPQQDAjBAMR8wHQYDVQQDDBZSZWNyYWZ0IFN0YWdpbmcgRGV2IENBMRAwDgYDVQQKDAdSZWNyYWZ0MQswCQYDVQQGEwJVUzAeFw0yNjA2MTIxOTQwMTZaFw0yODA2MTExOTQwMTZaMEAxHzAdBgNVBAMMFlJlY3JhZnQgU3RhZ2luZyBEZXYgQ0ExEDAOBgNVBAoMB1JlY3JhZnQxCzAJBgNVBAYTAlVTMFkwEwYHKoZIzj0CAQYIKoZIzj0DAQcDQgAEQ9IQBlcVbKaKPYrQSfOhL/00s7xUDC7RinIuLO/I1k99y9yh6oWF9kPxaP+tx1v1PeOL3yrVquJ730H0ZGiDyqNCMEAwDwYDVR0TAQH/BAUwAwEB/zAOBgNVHQ8BAf8EBAMCAYYwHQYDVR0OBBYEFAILKjgayqqXSv/5v5MWaO2UeHm3MAoGCCqGSM49BAMCA0gAMEUCIFQwNImLlYDeQhjgF+ZiqTbgcuzSqmOJw3Q2lQ/hu83FAiEA9O8cLm/xfoVLqB4jtdbuHzi3WL+p2RN+DRGkwpYswVuhY3BhZFkDpAAAAAAAAAAAAAAAAAAAAAAAAAAAAAAAAAAAAAAAAAAAAAAAAAAAAAAAAAAAAAAAAAAAAAAAAAAAAAAAAAAAAAAAAAAAAAAAAAAAAAAAAAAAAAAAAAAAAAAAAAAAAAAAAAAAAAAAAAAAAAAAAAAAAAAAAAAAAAAAAAAAAAAAAAAAAAAAAAAAAAAAAAAAAAAAAAAAAAAAAAAAAAAAAAAAAAAAAAAAAAAAAAAAAAAAAAAAAAAAAAAAAAAAAAAAAAAAAAAAAAAAAAAAAAAAAAAAAAAAAAAAAAAAAAAAAAAAAAAAAAAAAAAAAAAAAAAAAAAAAAAAAAAAAAAAAAAAAAAAAAAAAAAAAAAAAAAAAAAAAAAAAAAAAAAAAAAAAAAAAAAAAAAAAAAAAAAAAAAAAAAAAAAAAAAAAAAAAAAAAAAAAAAAAAAAAAAAAAAAAAAAAAAAAAAAAAAAAAAAAAAAAAAAAAAAAAAAAAAAAAAAAAAAAAAAAAAAAAAAAAAAAAAAAAAAAAAAAAAAAAAAAAAAAAAAAAAAAAAAAAAAAAAAAAAAAAAAAAAAAAAAAAAAAAAAAAAAAAAAAAAAAAAAAAAAAAAAAAAAAAAAAAAAAAAAAAAAAAAAAAAAAAAAAAAAAAAAAAAAAAAAAAAAAAAAAAAAAAAAAAAAAAAAAAAAAAAAAAAAAAAAAAAAAAAAAAAAAAAAAAAAAAAAAAAAAAAAAAAAAAAAAAAAAAAAAAAAAAAAAAAAAAAAAAAAAAAAAAAAAAAAAAAAAAAAAAAAAAAAAAAAAAAAAAAAAAAAAAAAAAAAAAAAAAAAAAAAAAAAAAAAAAAAAAAAAAAAAAAAAAAAAAAAAAAAAAAAAAAAAAAAAAAAAAAAAAAAAAAAAAAAAAAAAAAAAAAAAAAAAAAAAAAAAAAAAAAAAAAAAAAAAAAAAAAAAAAAAAAAAAAAAAAAAAAAAAAAAAAAAAAAAAAAAAAAAAAAAAAAAAAAAAAAAAAAAAAAAAAAAAAAAAAAAAAAAAAAAAAAAAAAAAAAAAAAAAAAAAAAAAAAAAAAAAAAAAAAAAAAAAAAAAAAAAAAAAAAAAAAAAAAAAAAAAAAAAAAAAAAAAAAAAAAAAAAAAAAAAAAAAAAAAAAAAAAAAAAAAAAAAAAAAAAAAAAAAAAAAAAAAAAAAAAAAAAAAAAAAAAAAAAAAAAAAAAAAAAAAAAAAAAAAAAAAAAAAAAAAAAAAAAAAAAAAAAAAAAAAAAAAAA9lhAEgmTdWV7AtyyfafMqs5vqooskTCy0EOmDue1F7892AAh1xj1Mt/aCq1IlRyT3nJYifHidUqeikyF+AsdxPKGgw==</c2pa:manifest></metadata>
<path transform="translate(0,0)" fill="rgb(46,38,34)" d="M 1023.54 249.386 C 1036.14 210.617 1057.13 182.071 1092.04 159.761 C 1122.4 140.356 1174.34 132.555 1209.22 141.317 C 1211.72 154.194 1210.75 173.407 1209.15 186.432 C 1203.87 229.443 1182.15 269.246 1147.86 295.914 C 1113.2 322.863 1069.93 331.879 1026.78 326.11 C 1026.87 342.806 1026.83 357.266 1025.95 373.95 C 1101 375.581 1174.34 396.679 1238.78 435.178 C 1399.02 530.223 1475.29 702.128 1523.87 874.296 C 1536.02 917.362 1544.69 959.22 1555.65 1002.2 C 1565.89 1005.27 1574.77 1008.84 1584.38 1013.63 C 1682.7 1062.68 1769.1 1153.73 1792.6 1263.33 C 1797.73 1287.27 1797.79 1310.68 1786.77 1332.89 C 1776.52 1353.85 1758.36 1369.87 1736.28 1377.43 C 1685.71 1394.29 1643.52 1365.36 1599.25 1342.87 C 1600.95 1458.61 1593.79 1556.7 1536.36 1660.32 C 1473.01 1774.6 1364.82 1855.38 1241.24 1892.76 C 1232.12 1896.14 1217.28 1899.46 1207.59 1901.9 C 1155.7 1915.01 1105.16 1918.86 1051.93 1920.08 C 880.944 1925.18 720.611 1894.96 594.664 1770.91 C 490.281 1668.11 445.443 1536.3 446.642 1390.82 C 446.769 1375.3 447.437 1359.49 447.28 1344.01 C 403.068 1360.55 366.619 1393.57 315.697 1379.7 C 286.398 1371.71 265.891 1354.43 256.958 1324.73 C 254.413 1316.27 251.084 1297.91 253.256 1289.49 C 257.149 1286.48 269.888 1288.48 277.135 1286.69 C 286.26 1284.44 287.135 1283.95 295.573 1279.91 C 280.875 1263.27 278.616 1251.43 283.013 1230.14 C 279.991 1228.38 263.337 1221.5 263.306 1219.49 C 263.13 1208.01 273.364 1189.12 278.794 1178.79 C 312.979 1113.72 366.535 1060.63 430.784 1025.25 C 450.622 1014.3 472.994 1006.23 494.219 999.399 C 549.664 715.211 682.752 388.691 1018.1 373.779 C 1019 362.385 1018.77 338 1018.46 326.351 C 914.713 334.176 842.022 271.621 837.032 165.481 C 836.692 158.236 836.058 150.541 838.436 143.574 C 842.027 139.373 856.876 138.986 862.999 138.4 C 891.154 135.811 925.001 142.514 949.76 156.348 C 985.894 176.143 1012.5 209.693 1023.54 249.386 z M 1045.24 1022.37 C 1148.08 1030.86 1233.04 1081.91 1299.51 1159.33 C 1405.11 1282.32 1439.04 1451.3 1426.19 1609.51 C 1420.18 1683.4 1395.01 1772.99 1353.16 1835.35 C 1372.92 1825.77 1394.67 1808.54 1411.81 1794.84 C 1479.9 1740.35 1533.16 1667.36 1561.66 1584.64 C 1603.09 1464.4 1593.74 1328.99 1579.12 1204.82 C 1564.88 1074.24 1537.99 945.345 1498.82 819.962 C 1441.11 641.14 1340.06 467.862 1152.21 404.376 C 1111.07 390.474 1046.31 377.449 1002.64 382.423 C 798.456 396.817 655.952 547.34 582.32 728.617 C 517.94 887.118 486.224 1059.44 466.41 1228.78 C 458.056 1302.29 451.522 1364.73 456.291 1438.48 C 465.17 1575.78 518.725 1696.64 624.029 1787 C 643.054 1803.33 670.782 1824.34 693.088 1836.07 C 649.137 1762.46 629.355 1694.33 621.826 1608.43 C 604.012 1405.17 670.016 1183.88 851.654 1071.86 C 906.285 1038.17 980.833 1015.71 1045.24 1022.37 z M 917.727 1048.56 C 914.245 1049.69 911.873 1050.68 908.573 1052.16 C 910.244 1052.79 911.486 1053.38 913.111 1054.15 L 912.968 1055.13 C 930.882 1054.59 929.979 1048.26 938.982 1047.08 L 949.468 1045.8 C 949.575 1040.87 946.66 1043.6 942.337 1041.22 L 941.577 1041.2 C 936.837 1042.41 933.225 1043.55 928.641 1045.14 C 925.138 1045.79 921.072 1047.26 917.727 1048.56 z M 971.896 1034.3 C 967.176 1035.04 963.341 1035.83 958.7 1036.72 L 962.889 1039.98 C 970.108 1038.4 968.772 1038.11 976.469 1038.23 C 977.864 1038.19 992.007 1037.9 990.384 1034.59 C 988.017 1033.34 988.574 1033.69 986.626 1031.89 C 981.803 1032.38 976.683 1033.48 971.896 1034.3 z M 1059.88 1031.95 C 1059.17 1032.66 1057.17 1034.32 1056.98 1035.41 C 1059.45 1040.88 1081.2 1036.72 1086.43 1036.49 C 1077.65 1034.96 1068.75 1032.94 1059.88 1031.95 z"/>
<path transform="translate(0,0)" fill="rgb(92,127,160)" d="M 1002.64 382.423 C 1046.31 377.449 1111.07 390.474 1152.21 404.376 C 1340.06 467.862 1441.11 641.14 1498.82 819.962 C 1537.99 945.345 1564.88 1074.24 1579.12 1204.82 C 1593.74 1328.99 1603.09 1464.4 1561.66 1584.64 C 1533.16 1667.36 1479.9 1740.35 1411.81 1794.84 C 1394.67 1808.54 1372.92 1825.77 1353.16 1835.35 C 1395.01 1772.99 1420.18 1683.4 1426.19 1609.51 C 1439.04 1451.3 1405.11 1282.32 1299.51 1159.33 C 1233.04 1081.91 1148.08 1030.86 1045.24 1022.37 C 980.833 1015.71 906.285 1038.17 851.654 1071.86 C 670.016 1183.88 604.012 1405.17 621.826 1608.43 C 629.355 1694.33 649.137 1762.46 693.088 1836.07 C 670.782 1824.34 643.054 1803.33 624.029 1787 C 518.725 1696.64 465.17 1575.78 456.291 1438.48 C 451.522 1364.73 458.056 1302.29 466.41 1228.78 C 486.224 1059.44 517.94 887.118 582.32 728.617 C 655.952 547.34 798.456 396.817 1002.64 382.423 z M 840.894 807.99 C 851.471 789.27 856.246 773.366 857.318 751.586 C 865.175 748.104 878.983 742.607 883.025 734.85 L 882.874 732.469 L 881.502 731.501 C 868.684 733.924 862.985 739.439 844.981 741.756 C 813.086 745.86 782.891 745.031 750.799 744.968 C 719.65 744.907 687.203 745.78 656.399 741.583 C 644.282 739.932 631.661 733.098 621.073 730.598 C 620.478 733.701 619.796 733.73 621.702 736.42 C 625.959 742.43 637.656 748.046 644.236 751.645 C 647.697 786.463 658.269 814.151 686.083 837.13 C 706.874 854.45 733.704 862.784 760.649 860.29 C 788.357 857.375 813.755 843.522 831.207 821.804 C 835.053 817.079 837.7 813.137 840.894 807.99 z M 1189.96 749.885 C 1190.71 756.969 1191.46 763.487 1192.83 770.48 C 1203.28 823.801 1251.34 866.139 1307.23 860.114 C 1334.91 856.978 1360.21 842.975 1377.57 821.185 C 1381.65 816.084 1384.16 812.232 1387.46 806.649 C 1398.71 785.75 1400.2 775.086 1402.44 751.527 C 1408.42 748.523 1431.28 739.163 1427.1 731.584 C 1423.47 731.255 1413.21 736.098 1408.26 737.571 C 1396.92 740.892 1385.23 742.906 1373.43 743.575 C 1344 745.425 1312.18 744.929 1282.53 745.074 C 1257.2 745.197 1229.63 745.933 1204.65 742.66 C 1195.94 741.52 1187.81 738.739 1179.55 735.909 C 1175.88 734.646 1168.44 731.072 1165.14 730.53 C 1165.4 741.422 1180.72 747.009 1189.96 749.885 z"/>
<path transform="translate(0,0)" fill="rgb(46,38,34)" d="M 621.073 730.598 C 631.661 733.098 644.282 739.932 656.399 741.583 C 687.203 745.78 719.65 744.907 750.799 744.968 C 782.891 745.031 813.086 745.86 844.981 741.756 C 862.985 739.439 868.684 733.924 881.502 731.501 L 882.874 732.469 L 883.025 734.85 C 878.983 742.607 865.175 748.104 857.318 751.586 C 856.246 773.366 851.471 789.27 840.894 807.99 C 837.7 813.137 835.053 817.079 831.207 821.804 C 813.755 843.522 788.357 857.375 760.649 860.29 C 733.704 862.784 706.874 854.45 686.083 837.13 C 658.269 814.151 647.697 786.463 644.236 751.645 C 637.656 748.046 625.959 742.43 621.702 736.42 C 619.796 733.73 620.478 733.701 621.073 730.598 z M 671.558 757.233 C 666.064 756.319 659.23 755.009 653.828 754.451 C 660.409 812.471 701.414 857.685 762.802 850.353 C 783.25 848.116 802.284 838.837 816.642 824.107 C 818.43 822.811 819.215 821.807 820.689 820.161 C 822.67 818.223 824.602 815.895 826.381 813.755 C 827.23 812.444 827.832 811.622 828.464 810.178 C 841.289 794.373 846.381 773.764 848.671 753.965 C 842.86 754.705 837.052 755.475 831.248 756.275 C 826.233 780.068 815.987 798.568 795.358 811.969 C 776.821 823.951 754.25 827.99 732.708 823.181 C 699.299 815.588 678.567 789.735 671.558 757.233 z"/>
<path transform="translate(0,0)" fill="rgb(212,213,213)" fill-opacity="0.0784314" d="M 816.642 824.107 C 814.269 819.437 809.284 826.193 806.553 818.606 C 804.829 813.817 812.718 804.029 816.993 804.455 C 822.416 804.995 820.669 796.948 827.941 801.102 C 828.973 801.691 828.476 809.035 828.464 810.178 C 827.832 811.622 827.23 812.444 826.381 813.755 C 823.806 808.288 824.175 807.652 816.565 808.919 C 814.316 809.293 810.594 817.925 815.489 818.405 C 818.497 818.701 818.938 817.681 820.689 820.161 C 819.215 821.807 818.43 822.811 816.642 824.107 z"/>
<path transform="translate(0,0)" fill="rgb(212,213,213)" fill-opacity="0.168627" d="M 820.689 820.161 C 818.938 817.681 818.497 818.701 815.489 818.405 C 810.594 817.925 814.316 809.293 816.565 808.919 C 824.175 807.652 823.806 808.288 826.381 813.755 C 824.602 815.895 822.67 818.223 820.689 820.161 z"/>
<path transform="translate(0,0)" fill="rgb(46,38,34)" d="M 1165.14 730.53 C 1168.44 731.072 1175.88 734.646 1179.55 735.909 C 1187.81 738.739 1195.94 741.52 1204.65 742.66 C 1229.63 745.933 1257.2 745.197 1282.53 745.074 C 1312.18 744.929 1344 745.425 1373.43 743.575 C 1385.23 742.906 1396.92 740.892 1408.26 737.571 C 1413.21 736.098 1423.47 731.255 1427.1 731.584 C 1431.28 739.163 1408.42 748.523 1402.44 751.527 C 1400.2 775.086 1398.71 785.75 1387.46 806.649 C 1384.16 812.232 1381.65 816.084 1377.57 821.185 C 1360.21 842.975 1334.91 856.978 1307.23 860.114 C 1251.34 866.139 1203.28 823.801 1192.83 770.48 C 1191.46 763.487 1190.71 756.969 1189.96 749.885 C 1180.72 747.009 1165.4 741.422 1165.14 730.53 z M 1350.88 834.127 C 1352.27 833.326 1353.56 832.391 1354.88 831.469 C 1366.31 822.958 1375.82 810.591 1382.26 797.941 L 1382.74 796.659 L 1383.83 794.365 C 1386.95 787.884 1393.24 771.88 1391.62 764.556 C 1390.36 758.833 1391.54 759.602 1394.06 753.588 C 1388.21 754.231 1381.79 754.848 1376.06 756.13 C 1373.89 766.152 1371.63 775.473 1366.19 784.381 L 1365.75 785.772 C 1364.15 787.8 1362.83 789.801 1361.39 791.944 C 1355.91 798.91 1349.69 803.739 1346.83 807.324 C 1344.33 809.209 1341.11 811.221 1338.87 813.254 C 1316.46 824.503 1297 829.114 1271.98 821.267 C 1252.09 815.03 1233.92 799.312 1224.8 780.448 C 1221.04 772.589 1218.5 764.201 1217.26 755.574 C 1211.24 754.708 1205.22 753.74 1199.23 752.673 C 1201.45 773.893 1205.15 787.883 1216.55 806.127 C 1244.76 851.282 1306.98 866.269 1350.88 834.127 z"/>
<path transform="translate(0,0)" fill="rgb(212,213,213)" fill-opacity="0.321569" d="M 1346.83 807.324 C 1349.69 803.739 1355.91 798.91 1361.39 791.944 L 1361.85 793.475 C 1364.08 804.329 1368.51 786.624 1382.26 797.941 C 1375.82 810.591 1366.31 822.958 1354.88 831.469 C 1353.98 830.191 1351.57 826.393 1350.34 825.802 C 1338.26 819.995 1358.12 812.185 1346.83 807.324 z"/>
<path transform="translate(0,0)" fill="rgb(212,213,213)" fill-opacity="0.0117647" d="M 1394.06 753.588 C 1391.54 759.602 1390.36 758.833 1391.62 764.556 C 1393.24 771.88 1386.95 787.884 1383.83 794.365 C 1382.93 791.69 1382.07 787.269 1383.83 785.474 C 1385.82 783.433 1388.49 764.359 1382.09 767.276 C 1380.66 767.914 1379.54 769.087 1378.96 770.544 C 1374.69 781.909 1383.46 786.083 1366.19 784.381 C 1371.63 775.473 1373.89 766.152 1376.06 756.13 C 1381.79 754.848 1388.21 754.231 1394.06 753.588 z"/>
<path transform="translate(0,0)" fill="rgb(212,213,213)" fill-opacity="0.0980392" d="M 1366.19 784.381 C 1383.46 786.083 1374.69 781.909 1378.96 770.544 C 1379.54 769.087 1380.66 767.914 1382.09 767.276 C 1388.49 764.359 1385.82 783.433 1383.83 785.474 C 1382.07 787.269 1382.93 791.69 1383.83 794.365 L 1382.74 796.659 C 1377.48 781.139 1376.54 795.86 1365.75 785.772 L 1366.19 784.381 z"/>
<path transform="translate(0,0)" fill="rgb(212,213,213)" fill-opacity="0.117647" d="M 1346.83 807.324 C 1358.12 812.185 1338.26 819.995 1350.34 825.802 C 1351.57 826.393 1353.98 830.191 1354.88 831.469 C 1353.56 832.391 1352.27 833.326 1350.88 834.127 C 1348.04 830.993 1340.35 833.016 1341.54 825.482 C 1342.25 821.011 1343.29 815.837 1338.87 813.254 C 1341.11 811.221 1344.33 809.209 1346.83 807.324 z"/>
<path transform="translate(0,0)" fill="rgb(212,213,213)" fill-opacity="0.25098" d="M 1361.39 791.944 C 1362.83 789.801 1364.15 787.8 1365.75 785.772 C 1376.54 795.86 1377.48 781.139 1382.74 796.659 L 1382.26 797.941 C 1368.51 786.624 1364.08 804.329 1361.85 793.475 L 1361.39 791.944 z"/>
<path transform="translate(0,0)" fill="rgb(46,38,34)" d="M 1020.51 761.755 C 1029.41 760.918 1042.19 775.656 1054.97 777.7 C 1070.42 781.985 1082.04 775.791 1094.01 766.764 C 1098.44 763.426 1108.79 763.544 1109.12 770.15 C 1109.81 784.239 1090.86 792.948 1079.34 795.361 C 1059.08 799.607 1042.58 795.485 1025.42 784.352 C 1022.43 783.039 1008.08 792.092 1002.56 793.674 C 981.372 799.746 954.609 796.052 939.355 779.034 C 935.721 775.288 937.061 767.597 941.904 765.488 C 954.079 760.186 958.835 776.343 975.02 777.411 C 996.596 778.834 1004.59 773.309 1020.51 761.755 z"/>
<path transform="translate(0,0)" fill="rgb(211,224,236)" d="M 986.626 1031.89 C 1013.73 1029.05 1032.48 1028.82 1059.88 1031.95 C 1059.17 1032.66 1057.17 1034.32 1056.98 1035.41 C 1059.45 1040.88 1081.2 1036.72 1086.43 1036.49 C 1112.19 1042.66 1125.85 1046.42 1150.34 1056.64 L 1158.36 1060.33 C 1408.87 1176.64 1479.86 1543.87 1373.89 1780.93 C 1364.39 1802.18 1351.53 1822.98 1339.47 1842.9 C 1287.95 1870.35 1232.55 1889.79 1175.18 1900.56 C 1043.3 1926.54 830.206 1916.85 708.932 1844.2 C 703.071 1840.69 688.081 1811.24 683.521 1803.87 C 612.448 1667.53 613.359 1485.21 657.521 1341.13 C 685.965 1248.33 753.692 1146.41 835.034 1092.25 C 849.107 1081.71 865.148 1072.67 880.826 1064.77 L 888.921 1060.63 C 895.988 1057.16 901.201 1054.99 908.573 1052.16 C 910.244 1052.79 911.486 1053.38 913.111 1054.15 L 912.968 1055.13 C 930.882 1054.59 929.979 1048.26 938.982 1047.08 L 949.468 1045.8 C 949.575 1040.87 946.66 1043.6 942.337 1041.22 C 946.091 1039.83 954.5 1037.83 958.7 1036.72 L 962.889 1039.98 C 970.108 1038.4 968.772 1038.11 976.469 1038.23 C 977.864 1038.19 992.007 1037.9 990.384 1034.59 C 988.017 1033.34 988.574 1033.69 986.626 1031.89 z"/>
<path transform="translate(0,0)" fill="rgb(92,127,160)" d="M 489.326 1009.06 C 490.576 1009.26 489.802 1009.02 491.351 1010.41 C 491.264 1016.89 488.461 1028.13 487.142 1035 L 479.227 1077.55 C 473.639 1108.67 470.077 1142.97 463.975 1173.21 C 454.454 1220.39 436.691 1274.36 417.799 1318.72 C 414.26 1327.03 403.075 1352.14 397.106 1357.03 C 382.996 1368.59 355.126 1376.17 336.829 1374.9 C 310.672 1373.09 293.841 1365.54 276.622 1346.66 L 283.338 1340.56 C 296.092 1324.66 291.59 1309.91 285.72 1292.72 C 295.543 1289.32 299.657 1288.36 307.589 1281.36 C 290.242 1261.21 285.054 1252.75 292.589 1226.13 C 286.229 1222.61 277.747 1219.03 270.999 1215.96 C 303.666 1125.49 396.225 1035.22 489.326 1009.06 z"/>
<path transform="translate(0,0)" fill="rgb(92,127,160)" d="M 1557.34 1010.18 C 1589.29 1019.96 1645.01 1058.74 1671.19 1081.42 C 1728.87 1131.39 1780.42 1208.12 1787.41 1285.4 C 1789.71 1310.92 1780.37 1332.62 1763.49 1351.46 C 1754.63 1360.17 1743.85 1366.7 1732.03 1370.52 C 1693.93 1382.98 1666.75 1368.37 1633.72 1351.62 C 1625.59 1244.1 1625.12 1130.88 1572.61 1033.3 C 1569.16 1026.88 1558.93 1016.13 1557.34 1010.18 z"/>
<path transform="translate(0,0)" fill="rgb(92,127,160)" d="M 1162.64 146.418 C 1173.62 145.064 1191.35 146.942 1202.35 148.251 C 1209.69 223.188 1163.11 299.427 1087.75 315.956 C 1066.85 320.539 1048.01 319.997 1026.94 318.873 L 1026.97 303.962 C 1031.43 298.744 1036.71 290.356 1041.35 284.547 C 1050.43 273.203 1059.33 264.437 1070.36 255.015 C 1077.28 248.867 1108.68 230.174 1109.53 224.415 C 1104.59 220.654 1094.33 229.16 1089.59 232.026 C 1064.14 247.407 1045.04 266.731 1027.01 290.084 C 1026.24 257.09 1037.45 224.934 1058.58 199.578 C 1086.05 166.429 1120.27 150.188 1162.64 146.418 z"/>
<path transform="translate(0,0)" fill="rgb(92,127,160)" d="M 864.509 146.4 C 936.901 139.992 1008.92 192.715 1018.91 265.917 C 1019.84 272.72 1019.25 282.758 1019.11 289.796 C 1015.05 283.065 1012.06 278.828 1006.78 273.058 C 994.829 259.999 954.212 224.286 936.272 223.489 L 935.333 226.193 C 938.651 229.597 955.639 240.289 960.494 243.456 C 985.442 261.318 1002.09 276.692 1018.14 302.391 L 1018 319.003 C 1011.75 319.452 1005.49 319.697 999.219 319.737 C 933.492 319.654 877.499 284.541 855.367 221.015 C 846.785 196.383 845.067 174.812 845.228 148.878 C 851.575 147.743 858.094 147.121 864.509 146.4 z"/>
<path transform="translate(0,0)" fill="rgb(212,213,213)" fill-opacity="0.843137" d="M 941.577 1041.2 L 942.337 1041.22 C 946.66 1043.6 949.575 1040.87 949.468 1045.8 L 938.982 1047.08 C 929.979 1048.26 930.882 1054.59 912.968 1055.13 L 913.111 1054.15 C 921.744 1054 921.549 1054.55 917.727 1048.56 C 921.072 1047.26 925.138 1045.79 928.641 1045.14 C 930.407 1045.42 941.149 1046.24 942.122 1045.53 C 942.472 1044.53 941.374 1043.45 941.577 1041.2 z"/>
<path transform="translate(0,0)" fill="rgb(212,213,213)" fill-opacity="0.886275" d="M 1059.88 1031.95 C 1068.75 1032.94 1077.65 1034.96 1086.43 1036.49 C 1081.2 1036.72 1059.45 1040.88 1056.98 1035.41 C 1057.17 1034.32 1059.17 1032.66 1059.88 1031.95 z"/>
<path transform="translate(0,0)" fill="rgb(212,213,213)" fill-opacity="0.843137" d="M 971.896 1034.3 C 976.683 1033.48 981.803 1032.38 986.626 1031.89 C 988.574 1033.69 988.017 1033.34 990.384 1034.59 C 992.007 1037.9 977.864 1038.19 976.469 1038.23 C 974.951 1036.9 973.502 1035.52 971.896 1034.3 z"/>
<path transform="translate(0,0)" fill="rgb(212,213,213)" fill-opacity="0.694118" d="M 958.7 1036.72 C 963.341 1035.83 967.176 1035.04 971.896 1034.3 C 973.502 1035.52 974.951 1036.9 976.469 1038.23 C 968.772 1038.11 970.108 1038.4 962.889 1039.98 L 958.7 1036.72 z"/>
<path transform="translate(0,0)" fill="rgb(212,213,213)" fill-opacity="0.713725" d="M 908.573 1052.16 C 911.873 1050.68 914.245 1049.69 917.727 1048.56 C 921.549 1054.55 921.744 1054 913.111 1054.15 C 911.486 1053.38 910.244 1052.79 908.573 1052.16 z"/>
<path transform="translate(0,0)" fill="rgb(212,213,213)" fill-opacity="0.701961" d="M 928.641 1045.14 C 933.225 1043.55 936.837 1042.41 941.577 1041.2 C 941.374 1043.45 942.472 1044.53 942.122 1045.53 C 941.149 1046.24 930.407 1045.42 928.641 1045.14 z"/>
</svg>