<svg xmlns="http://www.w3.org/2000/svg" width="535" height="345" viewBox="0 0 535 345"><path d="M 207 2 C 213.62 2.61 216.9 7.18 221 12 C 232.82 27.45 241.51 45.73 248 64 C 248.17 64.49 248.17 64.49 249.05 66.94 C 254.21 81.47 258.54 95.78 261 111 C 261.09 111.46 261.09 111.46 261.52 113.8 C 262.48 120.23 262.39 126.76 262.44 133.25 C 262.44 133.65 262.44 133.65 262.46 135.67 C 262.52 152.86 260.23 169.51 257.51 186.45 C 254.99 202.18 253.67 217.33 253.74 233.28 C 253.75 236.33 253.74 239.37 253.73 242.42 C 253.72 252.13 253.77 261.5 256 271 C 256.66 271 257.32 271 258 271 C 257.99 270.51 257.99 270.51 257.95 268.04 C 257.41 231.18 257.41 231.18 261 213 C 261.09 212.52 261.09 212.52 261.57 210.1 C 264.74 194.24 268.77 178.7 273.65 163.28 C 286.11 123.87 290.94 87.24 287.71 45.93 C 287.22 39.6 286.89 33.36 287 27 C 287.99 27 288.98 27 290 27 C 299.24 47.55 303.46 71.58 304 94 C 304.03 94.91 304.05 95.83 304.08 96.77 C 304.64 119.34 301.73 139.25 295.85 161 C 293.92 168.19 292.22 175.43 290.56 182.69 C 290.43 183.26 290.43 183.26 289.78 186.13 C 289.18 188.75 288.59 191.38 288 194 C 291.79 191.25 293.97 188.8 296.19 184.69 C 298.92 179.81 301.82 175.13 304.94 170.5 C 305.37 169.86 305.8 169.23 306.24 168.57 C 307.09 167.31 307.94 166.04 308.8 164.78 C 311.2 161.23 313.57 157.65 315.94 154.08 C 317.42 151.87 318.9 149.67 320.4 147.48 C 329.8 133.7 337.85 119.53 344 104 C 344.35 103.12 344.7 102.24 345.06 101.33 C 353.64 79.41 359.18 57 362.57 33.73 C 363.95 24.58 366.25 15.83 369 7 C 369.99 7.33 370.98 7.66 372 8 C 372.7 9.82 372.7 9.82 373.12 12.12 C 373.28 12.95 373.43 13.77 373.59 14.62 C 373.73 15.41 373.86 16.19 374 17 C 374.21 18.05 374.41 19.1 374.62 20.19 C 376.04 34.61 373.99 48.72 372 63 C 371.89 63.8 371.78 64.61 371.66 65.44 C 366.09 103.8 349.59 144.44 326.64 175.69 C 324.62 178.53 322.8 181.46 321 184.44 C 320.4 185.43 319.8 186.41 319.19 187.43 C 318 190 318 190 319 193 C 319.75 192.11 320.5 191.21 321.27 190.29 C 326.07 184.61 330.86 179.01 336.19 173.81 C 341.24 168.88 345.64 163.54 350 158 C 350.59 157.26 351.19 156.52 351.8 155.76 C 367.55 135.96 378.16 114.23 387.98 91.06 C 388.16 90.63 388.16 90.63 389.08 88.46 C 389.24 88.08 389.24 88.08 390.06 86.14 C 390.97 84.06 391.96 82.03 393 80 C 393.66 80 394.32 80 395 80 C 399.25 113.81 379.82 147.01 360 173 C 355.67 178.75 351.35 184.5 347.19 190.38 C 344.04 194.73 340.66 198.77 337.12 202.81 C 325.14 216.6 316.38 230.79 310 248 C 310.99 248 311.98 248 313 248 C 313.23 247.19 313.46 246.38 313.7 245.55 C 315.31 241.16 317.45 237.25 319.75 233.19 C 320.2 232.39 320.65 231.59 321.11 230.76 C 323.77 226.05 326.51 221.44 329.65 217.02 C 331 215 331 215 332.82 211.68 C 335 207.83 337.65 204.57 340.56 201.25 C 340.83 200.95 340.83 200.95 342.17 199.41 C 343.77 197.6 345.38 195.8 347 194 C 347.85 193.06 348.69 192.11 349.56 191.14 C 363.86 176.03 382.17 165.34 400.19 155.29 C 427.89 139.77 452.42 119.03 468.72 91.5 C 470 90 470 90 472.03 89.15 C 472.68 89.1 473.33 89.05 474 89 C 476 91 476 91 476.44 94.81 C 475.84 115.49 458.21 135.3 444.12 148.8 C 432.86 159.3 420.68 167.65 407.49 175.51 C 370.25 197.76 370.25 197.76 368.38 204.12 C 368.25 204.74 368.13 205.36 368 206 C 387.67 200.76 404.79 193.95 422.55 184.02 C 423.52 183.48 424.5 182.93 425.5 182.38 C 426.31 181.91 427.13 181.44 427.97 180.96 C 430 180 430 180 433 180 C 432.68 185.32 429.74 188.53 426 192 C 410.13 204.57 392.16 213.37 373.56 221.12 C 353.65 229.58 343.04 240.88 334 260 C 341.43 255.95 341.43 255.95 344.12 252.88 C 361.18 235.14 384.19 225.37 406.24 215.56 C 443.77 198.82 473.34 176.04 498 143 C 499.45 141.07 500.9 139.16 502.38 137.25 C 502.98 136.45 503.59 135.65 504.21 134.83 C 506.16 132.84 507.28 132.36 510 132 C 510.44 138.01 509.19 141.61 506.44 146.75 C 506.08 147.45 505.72 148.14 505.35 148.86 C 502.66 153.96 499.73 158.86 496.54 163.67 C 495 166 495 166 493.43 168.8 C 492.96 169.53 492.48 170.25 492 171 C 491.34 171 490.68 171 490 171 C 489.79 171.68 489.59 172.36 489.38 173.06 C 487.53 177 484.89 179.79 482 183 C 481.73 183.32 481.73 183.32 480.37 184.91 C 472.12 194.56 463.18 202.5 453 210 C 452.2 210.61 451.4 211.21 450.58 211.84 C 438.32 220.84 424.53 227.32 410.75 233.62 C 372.84 250.97 372.84 250.97 364 264 C 368.25 262.51 371.74 260.26 375.44 257.75 C 393.32 246.01 412.2 242.78 433.14 241.28 C 462.56 239.13 489.2 234.6 515.18 220 C 518.35 218.26 521.58 216.62 524.81 215 C 525.95 214.42 527.09 213.84 528.27 213.25 C 531 212 531 212 533 212 C 533 213.98 533 215.96 533 218 C 532.34 218 531.68 218 531 218 C 530.73 218.58 530.46 219.17 530.18 219.77 C 523 233.3 508.43 241.02 495 247 C 493.92 247.48 492.83 247.97 491.72 248.47 C 482.75 252.18 473.49 254.17 464 256 C 463.3 256.14 462.6 256.27 461.87 256.41 C 450.93 258.5 439.92 259.76 428.83 260.82 C 404.87 263.26 384.71 272.92 366.32 288.23 C 364 290 364 290 362 290 C 362 290.66 362 291.32 362 292 C 359.97 293.71 357.94 295.3 355.81 296.88 C 354.65 297.75 353.49 298.62 352.33 299.49 C 352.05 299.7 352.05 299.7 350.63 300.77 C 344.18 305.63 344.18 305.63 343 308 C 350.66 305.47 357.44 302.35 364.31 298.19 C 394.75 279.82 425.89 274.51 460.79 282.65 C 463.5 283.35 466.19 284.09 468.88 284.88 C 469.68 285.11 470.48 285.34 471.3 285.58 C 476.54 287.22 481.86 289.3 486 293 C 486 293.99 486 294.98 486 296 C 482.49 297.17 479.78 297.13 476.06 297.12 C 475.34 297.12 474.61 297.12 473.86 297.12 C 467.81 297.08 461.76 296.84 455.71 296.59 C 423.41 295.26 397.51 299.49 369.92 317.26 C 345.18 333.16 319.45 341.73 290.06 342.56 C 289.36 342.58 288.66 342.6 287.93 342.62 C 240.7 343.99 200.39 338 164.69 304.31 C 163.54 303.22 162.39 302.14 161.24 301.05 C 140.36 281.29 115.83 273.24 87.58 271.68 C 72.67 270.84 72.67 270.84 67 268 C 68 265 68 265 69.9 263.94 C 93.92 254.84 118.63 253.97 142.45 264.35 C 154.09 269.76 165.18 277.13 174.27 286.29 C 176.17 288.17 177.38 288.63 180 289 C 177.1 283.47 173.74 279.14 169.44 274.62 C 168.82 273.97 168.2 273.31 167.56 272.64 C 142.73 246.8 105.78 231.93 70.02 230.95 C 64.47 230.85 58.92 230.86 53.38 230.88 C 52.52 230.88 51.66 230.88 50.78 230.88 C 38.98 230.89 27.22 231.07 15.44 231.73 C 10.78 231.98 6.6 232.03 2 231 C 2.12 229.19 2.12 229.19 3 227 C 7.28 224.47 11.29 223.34 16.16 222.43 C 16.82 222.3 17.49 222.18 18.17 222.05 C 20.28 221.65 22.39 221.26 24.5 220.88 C 25.92 220.61 27.33 220.34 28.75 220.07 C 59.52 214.28 95.45 212.45 125 225 C 126.99 225.38 128.99 225.72 131 226 C 131 225.01 131 224.02 131 223 C 130.12 222.74 129.24 222.47 128.34 222.2 C 125.09 221.03 122.54 219.64 119.62 217.81 C 115 215.05 110.39 212.77 105.44 210.69 C 90.85 204.51 77.1 196.89 64 188 C 63.2 187.47 62.41 186.94 61.59 186.4 C 60.01 185.33 58.5 184.18 57 183 C 57 182.34 57 181.68 57 181 C 56.45 180.77 55.91 180.54 55.35 180.3 C 43.06 173.48 29.23 157.87 24 145 C 24 144.01 24 143.02 24 142 C 28.11 142.58 30.6 144.78 33.81 147.31 C 34.38 147.75 34.94 148.19 35.52 148.65 C 38.62 151.08 41.7 153.56 44.77 156.05 C 58.05 166.83 72.11 175.62 87 184 C 87.69 184.39 88.37 184.78 89.08 185.17 C 96.87 189.55 104.7 193.21 113.05 196.45 C 143.3 208.22 164.81 225.47 183.32 252.37 C 183.52 252.66 183.52 252.66 184.52 254.11 C 185.62 255.72 186.72 257.34 187.82 258.96 C 190.08 262.12 192.48 265.05 195 268 C 195 264.08 193.38 261.4 191.62 258 C 191.27 257.3 190.91 256.61 190.55 255.89 C 189.37 253.59 188.19 251.29 187 249 C 186.59 248.2 186.18 247.39 185.75 246.57 C 174.3 224.25 162.87 205.67 139.66 194.26 C 138.98 193.92 138.29 193.58 137.58 193.22 C 132.52 190.72 127.44 188.28 122.34 185.85 C 121.62 185.5 120.89 185.16 120.14 184.8 C 114.03 181.88 114.03 181.88 111.28 180.58 C 100.99 175.71 91.23 170.37 81.71 164.12 C 80.56 163.36 79.39 162.62 78.21 161.89 C 76.78 160.98 75.38 159.99 74 159 C 74 158.34 74 157.68 74 157 C 73.25 156.74 72.51 156.48 71.74 156.21 C 68.92 154.97 67.38 153.75 65.22 151.59 C 64.54 150.91 63.87 150.23 63.17 149.53 C 62.82 149.17 62.82 149.17 61.06 147.38 C 60.37 146.69 59.68 146 58.97 145.29 C 46.18 132.37 46.18 132.37 46 125 C 47 124 47 124 49.94 123.94 C 54.71 124.69 57.63 127.72 61.22 130.76 C 76.26 142.9 95.11 150.68 112.78 158.06 C 115.4 159.17 117.98 160.35 120.56 161.56 C 124.75 163.51 129.02 165.2 133.32 166.89 C 164.41 179.07 182.84 197.79 198.44 227 C 198.87 227.81 199.31 228.63 199.76 229.46 C 201.77 233.28 203.52 236.65 204 241 C 204.66 241 205.32 241 206 241 C 206.58 234.03 204.47 228.03 202.38 221.44 C 202.01 220.27 201.64 219.11 201.26 217.91 C 192.75 191.38 176.83 167.68 155 150 C 154.34 149.67 153.68 149.34 153 149 C 153 148.34 153 147.68 153 147 C 152.41 146.72 151.83 146.44 151.22 146.15 C 141.66 141.22 125.18 132.01 121 122 C 123.3 119.93 125.13 118.99 128.25 119.04 C 145.77 121.72 161.29 131.19 174.04 143.16 C 175.92 144.93 177.88 146.55 179.88 148.19 C 187.82 155.12 194.37 163.91 200.56 172.39 C 202 174 202 174 205 175 C 199.48 157.08 192.99 139.77 181.3 124.83 C 180 123 180 123 180 121 C 179.34 121 178.68 121 178 121 C 176.63 119.35 176.63 119.35 175 117.06 C 161.13 98.79 138.99 86.1 118.65 76.31 C 117.84 75.92 117.04 75.53 116.2 75.13 C 115.85 74.96 115.85 74.96 114.04 74.1 C 111.85 72.92 109.95 71.54 108 70 C 108.37 68.06 108.37 68.06 109 66 C 114.81 63.09 123.1 65.83 129.01 67.71 C 138.56 70.99 147.18 75.65 155.87 80.76 C 158.11 82.07 160.39 83.31 162.67 84.55 C 191.31 100.42 212.93 130.12 223 161 C 223 161.66 223 162.32 223 163 C 223.66 162.67 224.32 162.34 225 162 C 225.4 151.5 224.42 142.14 222 131.88 C 221.69 130.5 221.38 129.12 221.07 127.75 C 218.54 116.72 215.61 105.82 212.49 94.95 C 212.16 93.82 211.84 92.68 211.5 91.51 C 211.21 90.52 210.92 89.52 210.62 88.49 C 210 86 210 86 210 83 C 214.51 84.51 216.44 88.13 218.88 91.94 C 219.32 92.62 219.76 93.3 220.21 94 C 227.98 106.09 235.77 119.86 239 134 C 239.66 134 240.32 134 241 134 C 241.03 131.56 241.05 129.13 241.06 126.69 C 241.07 126.02 241.08 125.35 241.09 124.65 C 241.25 90.96 227.03 56.59 213.12 26.45 C 209.67 18.88 206.32 11.42 206 3 C 206.33 2.67 206.66 2.34 207 2 Z" fill="#769C52"/>
<path d="M 369 7 C 369.99 7.33 370.98 7.66 372 8 C 372.7 9.82 372.7 9.82 373.12 12.12 C 373.28 12.95 373.43 13.77 373.59 14.62 C 373.66 15.01 373.66 15.01 374 17 C 374.21 18.05 374.41 19.1 374.62 20.19 C 376.04 34.61 373.99 48.72 372 63 C 371.89 63.8 371.78 64.61 371.66 65.44 C 366.09 103.8 349.6 144.49 326.62 175.72 C 322.4 181.67 318.86 188.12 315.69 194.69 C 313.42 199.35 310.79 203.75 308.12 208.19 C 292.09 235.05 285.88 264.31 280.21 294.71 C 279.33 299.35 278.38 303.96 277.37 308.57 C 276.29 313.5 275.43 318.37 274.81 323.38 C 274.65 324.64 274.5 325.91 274.33 327.21 C 274.22 328.13 274.11 329.05 274 330 C 273.34 330 272.68 330 272 330 C 266.05 317.48 265.11 306.74 266 293 C 266.03 292.55 266.03 292.55 266.17 290.27 C 266.62 283.83 267.27 277.42 268 271 C 268.1 270.1 268.19 269.2 268.29 268.28 C 270.67 246.59 275.99 226.28 284.18 206.08 C 285.23 203.42 286.14 200.72 287 198 C 286.67 198 286.34 198 286 198 C 286.11 196.21 286.24 194.42 286.38 192.62 C 286.44 191.63 286.51 190.63 286.59 189.6 C 287 187 287 187 289 185 C 288.67 187.97 288.34 190.94 288 194 C 291.79 191.25 293.97 188.8 296.19 184.69 C 298.92 179.81 301.82 175.13 304.94 170.5 C 305.15 170.18 305.15 170.18 306.24 168.57 C 307.09 167.31 307.94 166.04 308.8 164.78 C 311.2 161.23 313.57 157.65 315.94 154.08 C 317.42 151.87 318.9 149.67 320.4 147.48 C 329.8 133.7 337.85 119.53 344 104 C 344.35 103.12 344.7 102.24 345.06 101.33 C 353.64 79.41 359.18 57 362.57 33.73 C 363.95 24.58 366.25 15.83 369 7 Z" fill="#9ABD69"/>
<path d="M 129.01 67.71 C 138.56 70.99 147.18 75.65 155.87 80.76 C 158.12 82.07 160.39 83.31 162.67 84.55 C 191.31 100.42 212.93 130.12 223 161 C 223 161.66 223 162.32 223 163 C 223.66 162.67 224.32 162.34 225 162 C 225.41 151.5 224.42 142.14 222 131.87 C 221.69 130.5 221.38 129.12 221.07 127.74 C 218.55 116.72 215.61 105.82 212.49 94.95 C 212.33 94.38 212.33 94.38 211.51 91.51 C 211.22 90.52 210.93 89.52 210.63 88.49 C 210 86 210 86 210 83 C 214.51 84.5 216.44 88.13 218.88 91.94 C 219.32 92.62 219.76 93.3 220.22 94 C 225.73 102.58 230.27 111.33 234.31 120.69 C 234.49 121.08 234.49 121.08 235.38 123.1 C 236.99 126.93 238.18 130.36 238.61 134.52 C 238.74 135.67 238.87 136.82 239 138 C 239.66 138.33 240.32 138.66 241 139 C 241.33 151.04 241 162.78 239.56 174.75 C 239.5 175.33 239.5 175.33 239.15 178.27 C 239.01 179.4 238.88 180.54 238.74 181.71 C 237.15 195.06 236.9 208.35 236.83 221.78 C 236.82 223.36 236.81 224.93 236.79 226.51 C 236.67 242.06 238.65 256.54 242.41 271.65 C 242.63 272.56 242.85 273.48 243.08 274.42 C 243.28 275.23 243.48 276.04 243.69 276.88 C 244 279 244 279 243 282 C 239.98 274.8 237.47 267.53 235.19 260.06 C 234.84 258.94 234.5 257.82 234.14 256.66 C 231.68 248.54 229.55 240.36 227.5 232.12 C 223.02 214.32 216.29 198.69 207.06 182.86 C 205.6 180.29 204.29 177.66 203 175 C 203.66 175 204.32 175 205 175 C 199.48 157.08 192.99 139.77 181.3 124.83 C 180 123 180 123 180 121 C 179.34 121 178.68 121 178 121 C 176.63 119.35 176.63 119.35 175 117.06 C 161.13 98.79 138.99 86.1 118.65 76.31 C 117.85 75.92 117.04 75.53 116.21 75.13 C 115.49 74.79 114.78 74.45 114.04 74.1 C 111.85 72.92 109.95 71.54 108 70 C 108.38 68.06 108.38 68.06 109 66 C 114.82 63.09 123.1 65.83 129.01 67.71 Z" fill="#4D7641"/>
<path d="M 510 132 C 510.44 138.01 509.19 141.61 506.44 146.75 C 506.08 147.45 505.72 148.14 505.35 148.86 C 502.66 153.96 499.73 158.86 496.54 163.67 C 495 166 495 166 493.43 168.8 C 492.96 169.53 492.48 170.25 492 171 C 491.34 171 490.68 171 490 171 C 489.79 171.68 489.59 172.36 489.38 173.06 C 487.53 177 484.89 179.79 482 183 C 481.46 183.63 480.92 184.26 480.37 184.91 C 472.12 194.56 463.18 202.5 453 210 C 452.2 210.61 451.4 211.21 450.58 211.84 C 438.32 220.84 424.53 227.32 410.75 233.62 C 396.87 239.97 384.12 246.62 372 256 C 371.14 256.66 370.29 257.32 369.4 258 C 367.21 259.82 365.45 261.63 363.62 263.81 C 361.37 266.46 359.07 268.96 356.56 271.38 C 353.16 274.73 350.25 278.37 347.3 282.12 C 340.33 290.84 333.07 299.27 325 307 C 324.18 307.82 323.35 308.65 322.5 309.5 C 321.68 310.32 320.85 311.15 320 312 C 319.46 312.58 318.93 313.17 318.38 313.77 C 308.41 324.31 295.27 331.45 283 339 C 282.67 338.34 282.34 337.68 282 337 C 282.47 336.6 282.95 336.2 283.43 335.79 C 301.22 320.5 312.84 303.51 321.19 281.72 C 334.55 247.91 375.38 229.29 406.24 215.56 C 443.81 198.8 473.28 176.02 498 143 C 499.49 141.08 500.99 139.16 502.5 137.25 C 502.81 136.85 502.81 136.85 504.41 134.83 C 506.26 132.7 507.16 132 510 132 Z" fill="#9BBD69"/>
<path d="M 144.25 123.5 C 155.38 127.98 165.31 134.97 174.04 143.16 C 175.92 144.93 177.88 146.55 179.87 148.19 C 188.33 155.56 195.31 165.05 202 174 C 202.54 174.69 203.08 175.39 203.63 176.11 C 217.54 194.86 224.75 216.42 230.31 238.81 C 233.43 251.37 237.35 263.51 241.55 275.75 C 243.93 282.7 246.04 289.71 248.13 296.75 C 250.7 305.4 253.72 313.62 257.65 321.75 C 258.48 323.48 259.25 325.24 260 327 C 259.67 327.66 259.34 328.32 259 329 C 249.85 320.32 241.82 311.62 235 301 C 234.64 300.44 234.27 299.88 233.9 299.3 C 220.81 278.83 210.57 257.86 205.6 234.04 C 199.03 203.38 182.66 169.61 156.06 151.19 C 155.05 150.47 154.04 149.74 153 149 C 153 148.34 153 147.68 153 147 C 152.71 146.86 152.71 146.86 151.22 146.15 C 141.66 141.22 125.18 132.01 121 122 C 127.59 116.09 137.02 120.84 144.25 123.5 Z" fill="#99BE68"/>
<path d="M 393 80 C 393.66 80 394.32 80 395 80 C 399.25 113.81 379.82 147.01 360 173 C 355.67 178.75 351.35 184.5 347.19 190.38 C 344.04 194.73 340.66 198.77 337.12 202.81 C 326.58 214.95 317.68 227.56 312.19 242.81 C 311 246 311 246 309 247 C 308.44 249.47 308.44 249.47 308 252.5 C 307.56 255.53 307.56 255.53 307 258 C 306.34 258.33 305.68 258.66 305 259 C 305.05 259.61 305.09 260.22 305.14 260.85 C 305.44 267.75 304.03 272.49 301 278.62 C 300.59 279.49 300.18 280.36 299.76 281.25 C 298.52 283.85 297.27 286.42 296 289 C 295.34 290.38 294.67 291.77 294.01 293.15 C 290.27 300.86 286.22 308.41 282.12 315.94 C 281.65 316.82 281.17 317.7 280.68 318.62 C 280.23 319.43 279.78 320.25 279.32 321.09 C 278.92 321.82 278.52 322.55 278.11 323.3 C 277 325 277 325 275 326 C 274.22 315.51 276.55 305.53 278.62 295.31 C 278.99 293.47 279.36 291.62 279.73 289.78 C 286.04 258.43 294.05 229.63 310.31 201.88 C 310.82 201 311.32 200.13 311.84 199.23 C 312.32 198.43 312.8 197.63 313.3 196.8 C 313.73 196.09 314.15 195.38 314.59 194.65 C 316.32 192.63 317.45 192.54 320 192 C 321.83 190.06 323.48 188.15 325.12 186.06 C 328.61 181.78 332.15 177.73 336.12 173.88 C 341.2 168.92 345.62 163.57 350 158 C 350.59 157.26 351.19 156.52 351.8 155.76 C 367.55 135.96 378.16 114.23 387.98 91.06 C 388.34 90.2 388.71 89.34 389.08 88.46 C 389.24 88.08 389.24 88.08 390.06 86.14 C 390.97 84.06 391.96 82.03 393 80 Z" fill="#4E7741"/>
<path d="M 533 212 C 533 213.98 533 215.96 533 218 C 532.34 218 531.68 218 531 218 C 530.87 218.29 530.87 218.29 530.18 219.77 C 523 233.3 508.43 241.02 495 247 C 493.92 247.48 492.83 247.97 491.72 248.47 C 482.75 252.18 473.49 254.17 464 256 C 463.3 256.14 462.6 256.27 461.87 256.41 C 450.93 258.5 439.92 259.76 428.83 260.82 C 404.87 263.26 384.71 272.92 366.32 288.23 C 364 290 364 290 362 290 C 362 290.66 362 291.32 362 292 C 360.01 293.69 358.03 295.26 355.94 296.81 C 355.34 297.26 354.75 297.71 354.14 298.18 C 351.07 300.5 347.95 302.73 344.75 304.88 C 342 307 342 307 341.55 309.01 C 341 311 341 311 339.46 312.14 C 338.8 312.44 338.13 312.74 337.45 313.04 C 336.7 313.39 335.95 313.74 335.17 314.1 C 334.35 314.46 333.53 314.82 332.69 315.19 C 331.85 315.57 331.01 315.95 330.14 316.35 C 328.36 317.16 326.57 317.96 324.78 318.76 C 321.99 320.01 319.21 321.28 316.43 322.55 C 314.64 323.37 312.85 324.18 311.06 325 C 310.22 325.39 309.37 325.77 308.5 326.17 C 308.1 326.35 308.1 326.35 306.1 327.25 C 305.4 327.56 304.71 327.88 303.99 328.2 C 302.01 329 300.08 329.53 298 330 C 301.02 326.8 304.25 324.26 307.81 321.69 C 312.65 318.1 316.89 314.38 321 310 C 323.43 307.55 325.88 305.12 328.36 302.71 C 333.48 297.7 338.16 292.53 342.64 286.94 C 345.28 283.65 347.97 280.41 350.69 277.19 C 351.13 276.66 351.57 276.13 352.02 275.59 C 353.33 274.04 354.65 272.52 356 271 C 356.23 270.73 356.23 270.73 357.42 269.39 C 360.93 265.61 364.15 263.91 369 262 C 371.23 260.6 373.4 259.17 375.56 257.69 C 393.37 245.96 412.27 242.77 433.14 241.28 C 462.56 239.13 489.2 234.6 515.18 220 C 518.35 218.26 521.58 216.62 524.81 215 C 525.95 214.42 527.09 213.84 528.27 213.25 C 531 212 531 212 533 212 Z" fill="#4E7842"/>
<path d="M 168.97 281.45 C 172 284 172 284 174.27 286.29 C 176.18 288.17 177.38 288.63 180 289 C 180.33 288.34 180.66 287.68 181 287 C 186 292.75 186 292.75 186 295 C 187.38 296.17 187.38 296.17 189.34 297.47 C 190.07 297.95 190.79 298.44 191.54 298.93 C 192.33 299.45 193.12 299.97 193.94 300.5 C 194.35 300.77 194.35 300.77 196.42 302.13 C 202.98 306.42 209.67 310.45 216.46 314.36 C 219.78 316.27 223.06 318.24 226.33 320.23 C 236.52 326.41 246.63 331.94 257.64 336.51 C 261 338 261 338 263 340 C 265.38 340.63 265.38 340.63 268.13 341.13 C 269.04 341.29 269.95 341.46 270.88 341.63 C 271.23 341.69 271.23 341.69 273 342 C 273 342.33 273 342.66 273 343 C 228.91 343.68 193.52 331.65 161.24 301.05 C 140.36 281.29 115.84 273.24 87.58 271.68 C 72.68 270.84 72.68 270.84 67 268 C 68 265 68 265 69.9 263.94 C 105.83 250.34 139.36 257.64 168.97 281.45 Z" fill="#9ABD69"/>
<path d="M 472 89 C 474.13 89.94 474.13 89.94 476 91 C 477.33 106.66 467.13 123.11 457.39 134.85 C 443 151.51 426.32 164.28 407.49 175.51 C 394.81 183.08 382.49 190.69 371 200 C 370.25 200.5 369.5 201.01 368.72 201.52 C 367 203 367 203 366.63 204.98 C 366 207 366 207 364.33 208.06 C 363.62 208.32 362.9 208.59 362.17 208.86 C 361.77 209.01 361.77 209.01 359.76 209.79 C 358.91 210.11 358.06 210.42 357.19 210.75 C 348.98 214 342.06 217.63 335 223 C 334.68 223.23 334.68 223.23 333.04 224.41 C 327.25 228.9 323.22 235.09 319 241 C 318.67 240.34 318.34 239.68 318 239 C 319 237.33 320 235.67 321 234 C 321.25 232.97 321.5 231.94 321.75 230.88 C 323.21 225.3 326.83 220.73 330 216 C 330.46 215.26 330.93 214.51 331.41 213.75 C 348.09 187.37 373.44 170.21 400.19 155.29 C 428.25 139.58 451.8 118.84 468.91 91.5 C 470 90 470 90 472 89 Z" fill="#4D7742"/>
<path d="M 24 142 C 28.11 142.58 30.6 144.78 33.81 147.31 C 34.38 147.75 34.94 148.19 35.52 148.65 C 38.62 151.08 41.7 153.56 44.77 156.05 C 58.05 166.83 72.11 175.62 87 184 C 87.69 184.39 88.37 184.78 89.08 185.17 C 96.87 189.55 104.7 193.21 113.05 196.45 C 144.11 208.53 165.44 226.38 184.41 253.94 C 195.9 270.63 195.9 270.63 200 272 C 201.37 273.87 201.37 273.87 202.88 276.44 C 207.65 284.23 213.09 291.53 218.48 298.91 C 220.67 301.93 222.84 304.96 225 308 C 213.15 302.54 204.06 290.09 196.42 279.87 C 192.23 274.36 187.78 269.03 183.38 263.68 C 182.25 262.3 181.13 260.92 180.01 259.53 C 169.18 246.49 153.55 236.73 138.28 229.69 C 135.52 228.39 133.24 227.24 131.08 225.07 C 124.98 218.98 116.36 215.64 108.56 212.25 C 92.99 205.31 78.12 197.58 64 188 C 63.2 187.47 62.41 186.94 61.59 186.4 C 60.01 185.33 58.5 184.18 57 183 C 57 182.34 57 181.68 57 181 C 56.45 180.77 55.91 180.54 55.35 180.3 C 43.06 173.48 29.23 157.87 24 145 C 24 144.01 24 143.02 24 142 Z" fill="#4E7641"/>
<path d="M 210 83 C 214.51 84.51 216.44 88.13 218.88 91.94 C 219.32 92.62 219.76 93.3 220.21 94 C 225.73 102.58 230.26 111.33 234.31 120.69 C 234.66 121.48 235.01 122.28 235.37 123.1 C 236.99 126.94 238.18 130.36 238.61 134.52 C 238.74 135.67 238.87 136.82 239 138 C 239.66 138.33 240.32 138.66 241 139 C 241.33 151.04 241 162.78 239.56 174.75 C 239.42 175.91 239.29 177.07 239.14 178.27 C 239.01 179.4 238.87 180.54 238.73 181.71 C 237.15 195.06 236.9 208.35 236.83 221.78 C 236.82 223.36 236.81 224.94 236.79 226.51 C 236.67 242.06 238.65 256.54 242.41 271.65 C 242.63 272.56 242.85 273.48 243.07 274.42 C 243.28 275.23 243.48 276.04 243.69 276.88 C 244 279 244 279 243 282 C 234.89 262.7 227.44 240.96 226.41 219.88 C 226.37 219.12 226.33 218.36 226.29 217.57 C 225.82 207.51 225.89 197.44 225.94 187.38 C 225.94 185.39 225.95 183.4 225.95 181.41 C 225.96 176.6 225.98 171.8 226 167 C 225.01 167 224.02 167 223 167 C 223 165.68 223 164.36 223 163 C 223.33 162.84 223.33 162.84 225 162 C 225.4 151.5 224.42 142.14 222 131.88 C 221.69 130.5 221.38 129.12 221.07 127.75 C 218.54 116.72 215.61 105.82 212.49 94.95 C 212.16 93.82 211.84 92.68 211.5 91.51 C 211.21 90.52 210.92 89.52 210.62 88.49 C 210 86 210 86 210 83 Z" fill="#5B8142"/>
<path d="M 288 26 C 290.37 28.13 291.63 29.96 292.75 32.94 C 292.88 33.27 292.88 33.27 293.55 34.96 C 294 37 294 37 293 41 C 292.01 38.03 291.02 35.06 290 32 C 289.97 34 289.95 36 289.94 38 C 289.93 39.11 289.91 40.23 289.9 41.38 C 290 45 290 45 290.5 48.62 C 291.1 53.34 291.16 58.01 291.17 62.77 C 291.17 63.7 291.17 64.62 291.18 65.57 C 291.18 67.52 291.19 69.47 291.19 71.41 C 291.19 74.33 291.21 77.25 291.22 80.17 C 291.25 89.25 291.07 98.25 290.11 107.29 C 290.04 108.04 289.96 108.8 289.88 109.58 C 289.25 114.75 289.25 114.75 287 117 C 287.06 116.25 287.12 115.49 287.18 114.72 C 287.47 111.15 287.73 107.57 288 104 C 288.1 102.81 288.19 101.61 288.29 100.38 C 289.61 82.17 289.13 64.13 287.71 45.93 C 287.22 39.6 286.79 33.35 287 27 C 287.33 26.67 287.66 26.34 288 26 Z" fill="#8D956A"/>
<path d="M 259 228 C 259.33 228 259.66 228 260 228 C 260 245.16 260 262.32 260 280 C 259.01 279.67 258.02 279.34 257 279 C 253.91 272.54 252.45 266.12 253 259 C 255.39 262.83 255.56 266.6 256 271 C 256.66 271 257.32 271 258 271 C 257.99 269.95 257.99 268.89 257.98 267.81 C 257.97 263.87 257.95 259.94 257.95 256 C 257.94 254.31 257.93 252.61 257.92 250.91 C 257.91 248.46 257.91 246.01 257.9 243.56 C 257.9 242.81 257.89 242.06 257.89 241.28 C 257.89 236.75 258.26 232.47 259 228 Z" fill="#8F8B6B"/>
<path d="M 321 231 C 321.33 231.99 321.66 232.98 322 234 C 321.03 235.68 320.02 237.35 319 239 C 318.39 240.47 317.81 241.95 317.25 243.44 C 315.06 249.08 312.35 254.42 309.59 259.8 C 308.25 262.5 307.07 265.18 306 268 C 304 266 304 266 303.88 262.38 C 303.92 261.26 303.96 260.15 304 259 C 304.99 258.67 305.98 258.34 307 258 C 307.05 257.22 307.1 256.44 307.15 255.63 C 307.22 254.62 307.3 253.61 307.38 252.56 C 307.44 251.55 307.51 250.54 307.59 249.5 C 307.65 249.09 307.65 249.09 308 247 C 308.66 246.67 309.32 246.34 310 246 C 310 246.66 310 247.32 310 248 C 310.99 248 311.98 248 313 248 C 313.21 247.24 313.41 246.47 313.62 245.69 C 315.56 240.5 318.28 235.81 321 231 Z" fill="#636E4D"/>
<path d="M 237 254 C 239.89 258.34 240.56 262.96 241.69 268 C 241.93 269.01 242.16 270.02 242.41 271.06 C 242.63 272.03 242.85 273 243.07 274 C 243.28 274.89 243.48 275.77 243.69 276.69 C 244 279 244 279 243 282 C 234.23 261.32 234.23 261.32 236 256 C 236.33 255.34 236.66 254.68 237 254 Z" fill="#547D3A"/>
<path d="M 370 174 C 370.66 174.33 371.32 174.66 372 175 C 371.61 175.32 371.61 175.32 369.61 176.95 C 362.79 182.59 356.35 188.44 350.23 194.85 C 346.3 198.9 346.3 198.9 343 200 C 344.65 195.8 347.73 192.93 350.88 189.81 C 351.45 189.24 352.02 188.67 352.6 188.09 C 358 182.81 363.81 178.32 370 174 Z" fill="#5E7250"/>
<path d="M 220 120 C 223.43 123.43 223.65 128.3 224.62 132.94 C 224.85 134.01 225.08 135.08 225.31 136.18 C 227.22 145.87 227.52 155.16 227 165 C 225.68 165 224.36 165 223 165 C 223 164.34 223 163.68 223 163 C 223.33 162.84 223.33 162.84 225 162 C 225.88 149.56 223.44 138.37 220.46 126.33 C 220 124 220 124 220 120 Z" fill="#75745E"/>
<path d="M 338 247 C 338.33 247.66 338.66 248.32 339 249 C 338 251.6 338 251.6 336.56 254.62 C 336.09 255.63 335.62 256.63 335.13 257.66 C 334.76 258.43 334.38 259.21 334 260 C 334.66 260.33 335.32 260.66 336 261 C 333.03 264.3 330.06 267.6 327 271 C 326.67 270.34 326.34 269.68 326 269 C 327.15 266.35 328.36 263.82 329.69 261.25 C 330.04 260.55 330.39 259.84 330.76 259.12 C 332.92 254.87 335.28 250.91 338 247 Z" fill="#5B7047"/>
<path d="M 210 83 C 210.66 83.33 210.66 83.33 214 85 C 213.67 85.99 213.34 86.98 213 88 C 213.53 90.63 213.53 90.63 214.43 93.77 C 214.75 94.91 215.07 96.04 215.4 97.21 C 215.74 98.4 216.08 99.59 216.44 100.81 C 217.11 103.15 217.78 105.49 218.43 107.83 C 218.73 108.87 219.03 109.91 219.34 110.98 C 220.02 114.08 220.12 116.84 220 120 C 219.67 120 219.34 120 219 120 C 217.88 115.7 216.75 111.39 215.64 107.08 C 215.26 105.62 214.88 104.16 214.49 102.7 C 213.94 100.59 213.39 98.48 212.85 96.37 C 212.52 95.1 212.19 93.83 211.85 92.53 C 211.09 89.36 210.49 86.22 210 83 Z" fill="#707958"/>
<path d="M 364 265 C 362.59 270.17 359.14 273.75 355 277 C 352.77 277.7 352.77 277.7 351 278 C 353.16 273.69 358.71 265 364 265 Z" fill="#70625D"/>
<path d="M 241 107 C 241.33 107 241.66 107 242 107 C 242.75 111 243.12 114.77 243.1 118.84 C 243.09 119.9 243.09 120.96 243.09 122.06 C 243.08 123.15 243.07 124.25 243.06 125.38 C 243.06 126.49 243.05 127.61 243.05 128.76 C 243.04 131.51 243.02 134.25 243 137 C 242.34 137.33 241.68 137.66 241 138 C 240.34 137.67 239.68 137.34 239 137 C 239 136.34 239 135.68 239 135 C 239.66 134.67 240.32 134.34 241 134 C 241 125.09 241 116.18 241 107 Z" fill="#8F8C6F"/>
<path d="M 107 221 C 112.7 221.45 117.54 222.37 122.91 224.3 C 125.57 225.19 128.22 225.64 131 226 C 131.33 225.34 131.66 224.68 132 224 C 132.33 225.32 132.66 226.64 133 228 C 123.94 227.51 115.61 224.68 107 222 C 107 221.67 107 221.34 107 221 Z" fill="#8C8E6C"/>
<path d="M 309 246 C 309.33 246.66 309.66 247.32 310 248 C 310.66 248 311.32 248 312 248 C 310.25 253.47 308.34 258.76 306 264 C 304.71 260.12 305.49 257.85 306.38 253.88 C 306.65 252.61 306.93 251.35 307.21 250.05 C 308 247 308 247 309 246 Z" fill="#896875"/></svg>