<svg xmlns="http://www.w3.org/2000/svg" width="273" height="220" viewBox="0 0 273 220"><path d="M 213.68 33.44 C 216.54 35.88 219.29 38.4 222 41 C 222.49 41.47 222.97 41.93 223.47 42.41 C 252.43 70.73 270.27 118.42 271.3 158.52 C 271.32 161.09 271.32 163.67 271.31 166.25 C 271.33 167.55 271.35 168.84 271.36 170.18 C 271.37 186.52 271.37 186.52 266.45 191.6 C 261.65 195.49 255.17 198 249 198 C 248.67 198.66 248.34 199.32 248 200 C 247.01 199.67 246.02 199.34 245 199 C 244.67 199.66 244.34 200.32 244 201 C 241.03 201 238.06 201 235 201 C 235 201.66 235 202.32 235 203 C 232.03 202.67 229.06 202.34 226 202 C 226 202.66 226 203.32 226 204 C 219.4 204 212.8 204 206 204 C 206 203.34 206 202.68 206 202 C 202.37 202.33 198.74 202.66 195 203 C 195 202.34 195 201.68 195 201 C 193.02 201.33 191.04 201.66 189 202 C 189 201.34 189 200.68 189 200 C 186.69 200.33 184.38 200.66 182 201 C 182 200.34 182 199.68 182 199 C 180.35 199.33 178.7 199.66 177 200 C 177 199.34 177 198.68 177 198 C 172.71 197.67 168.42 197.34 164 197 C 164 196.34 164 195.68 164 195 C 162.68 195.33 161.36 195.66 160 196 C 160 195.34 160 194.68 160 194 C 158.54 194.45 157.08 194.91 155.63 195.38 C 154.81 195.63 154 195.89 153.16 196.15 C 151 197 151 197 149 199 C 148.15 199.33 147.31 199.66 146.44 200 C 144 201 144 201 143 203 C 142.01 203.33 141.02 203.66 140 204 C 139.34 204.99 138.68 205.98 138 207 C 135.35 208.18 132.78 209.22 130.06 210.19 C 129.33 210.46 128.6 210.73 127.85 211.01 C 124.79 212.14 122.29 213 119 213 C 118.67 213.66 118.34 214.32 118 215 C 117.01 214.67 116.02 214.34 115 214 C 115 214.66 115 215.32 115 216 C 113.4 216.2 111.79 216.38 110.19 216.56 C 109.29 216.67 108.4 216.77 107.48 216.88 C 105 217 105 217 102 216 C 102 216.66 102 217.32 102 218 C 96.72 218 91.44 218 86 218 C 86 217.34 86 216.68 86 216 C 83.36 216.33 80.72 216.66 78 217 C 78 216.34 78 215.68 78 215 C 76.35 215.33 74.7 215.66 73 216 C 73 215.34 73 214.68 73 214 C 71.68 214.33 70.36 214.66 69 215 C 69 214.34 69 213.68 69 213 C 68.44 212.88 67.89 212.76 67.31 212.63 C 65.7 212.28 64.1 211.92 62.49 211.55 C 60.4 211.09 58.29 210.69 56.19 210.31 C 47.59 208.14 37.17 201.94 32.31 194.38 C 31.88 193.59 31.45 192.81 31 192 C 28.94 189.59 28.11 189.04 25 188 C 25 186.68 25 185.36 25 184 C 24.42 183.96 23.85 183.92 23.25 183.88 C 19.88 182.57 18.56 180.1 17 177 C 16.22 174.93 15.56 172.85 14.91 170.73 C 14.01 168.02 12.95 165.41 11.85 162.78 C 0.76 136.12 -2.06 106.2 8.85 78.87 C 21.7 48.79 44.65 24.71 75 12 C 121.23 -6.48 174.93 1.74 213.68 33.44 Z" fill="#F6D8A4"/>
<path d="M 135 71 C 135.91 71.29 136.82 71.58 137.76 71.88 C 153.15 77.29 165.04 89.76 172.13 104.12 C 183.34 128.41 181.83 154.78 175 180 C 174.79 180.8 174.58 181.6 174.37 182.43 C 171.96 191.52 171.96 191.52 170 195 C 166.84 196.39 166.84 196.39 164 197 C 164 196.34 164 195.68 164 195 C 162.68 195.33 161.36 195.66 160 196 C 160 195.34 160 194.68 160 194 C 158.54 194.45 157.08 194.91 155.62 195.38 C 154.81 195.63 154 195.89 153.16 196.15 C 151 197 151 197 149 199 C 148.15 199.33 147.31 199.66 146.44 200 C 144 201 144 201 143 203 C 142.01 203.33 141.02 203.66 140 204 C 139.34 204.99 138.68 205.98 138 207 C 135.35 208.18 132.78 209.22 130.06 210.19 C 129.33 210.46 128.6 210.73 127.85 211.01 C 124.79 212.14 122.29 213 119 213 C 118.67 213.66 118.34 214.32 118 215 C 117.01 214.67 116.02 214.34 115 214 C 115 214.66 115 215.32 115 216 C 113.4 216.2 111.79 216.38 110.19 216.56 C 109.29 216.67 108.4 216.77 107.48 216.88 C 105 217 105 217 102 216 C 102 216.66 102 217.32 102 218 C 96.72 218 91.44 218 86 218 C 86 217.34 86 216.68 86 216 C 83.36 216.33 80.72 216.66 78 217 C 78 216.34 78 215.68 78 215 C 76.35 215.33 74.7 215.66 73 216 C 73 215.34 73 214.68 73 214 C 71.68 214.33 70.36 214.66 69 215 C 69 214.34 69 213.68 69 213 C 68.44 212.88 67.89 212.76 67.31 212.63 C 65.7 212.28 64.09 211.92 62.49 211.55 C 60.4 211.09 58.29 210.69 56.19 210.31 C 47.59 208.14 37.17 201.94 32.31 194.38 C 31.88 193.59 31.45 192.81 31 192 C 28.94 189.59 28.11 189.04 25 188 C 25 186.68 25 185.36 25 184 C 24.42 183.96 23.84 183.92 23.25 183.88 C 19.88 182.57 18.56 180.1 17 177 C 16.18 174.81 15.48 172.61 14.8 170.38 C 13.69 167.07 12.2 163.98 10.67 160.85 C 10.56 160.54 10.56 160.54 10 159 C 10.16 158.67 10.16 158.67 11 157 C 11.47 157.68 11.95 158.36 12.43 159.05 C 17.22 165.8 22.35 171.97 28 178 C 28.52 178.6 29.03 179.21 29.56 179.83 C 40.93 192.49 61.34 202.44 78.2 203.88 C 102.9 204.98 122.25 201.4 141.43 184.91 C 153.16 173.99 159.23 159.15 160.24 143.26 C 160.7 126.18 157.13 109.78 145.1 96.91 C 134.1 86.89 122.91 82.71 108.25 82.56 C 107.36 82.55 106.48 82.54 105.56 82.53 C 99.78 82.61 95.25 83.62 90 86 C 89.12 86.35 88.25 86.71 87.35 87.07 C 76.02 92.3 69.63 100.57 65 112 C 62.44 120.97 62.54 132.21 66.5 140.69 C 71.03 148.42 77.51 153.46 85.56 157.19 C 94.37 159.27 103.19 158.81 111 154 C 116.75 149.09 120.34 143.3 121.28 135.78 C 121.54 129.65 120.45 124.08 116.57 119.2 C 112.65 115.11 109.73 113.85 104.19 113.69 C 99.37 113.74 96.66 114.7 93 118 C 91.22 120.91 90.7 123.16 90.69 126.56 C 90.68 126.94 90.68 126.94 90.64 128.88 C 91.09 131.5 92.12 132.21 94 134 C 93.69 136.69 93.69 136.69 93 139 C 90.25 139.31 90.25 139.31 87 139 C 81.82 133.68 81.59 129.55 81.66 122.34 C 82.3 116.09 85.44 112.21 90 108.12 C 96.66 103.4 103.01 103.12 111 104 C 119.41 106.5 124.9 111.8 129.32 119.21 C 133.56 128.12 133.44 138.66 130.38 147.94 C 126.31 157.55 119.63 165.26 109.94 169.31 C 98.56 173.43 87.97 173.12 77 168 C 63.15 161.06 55.99 151.16 50.83 136.73 C 47.63 122.39 49.14 108.1 56.49 95.43 C 57.91 93.21 59.41 91.1 61 89 C 61.72 87.99 62.44 86.98 63.19 85.94 C 80.88 65.58 110.88 62.76 135 71 Z" fill="#DFB178"/>
<path d="M 213.68 33.44 C 216.54 35.88 219.29 38.4 222 41 C 222.49 41.47 222.97 41.93 223.47 42.41 C 252.43 70.73 270.27 118.42 271.3 158.52 C 271.32 161.09 271.32 163.67 271.31 166.25 C 271.33 167.55 271.35 168.84 271.36 170.18 C 271.37 186.61 271.37 186.61 266.37 191.64 C 262.59 194.67 258.67 195.75 254 197 C 254.09 196.42 254.18 195.84 254.28 195.25 C 254.99 190.61 255.68 185.98 256.32 181.33 C 256.45 180.45 256.57 179.56 256.69 178.65 C 257.23 174.05 257.36 169.62 257 165 C 256.95 164.31 256.89 163.63 256.84 162.92 C 256.01 152.73 254.66 142.89 252 133 C 251.75 132.05 251.5 131.1 251.25 130.11 C 250.52 127.4 249.77 124.7 249 122 C 248.89 121.6 248.89 121.6 248.32 119.55 C 242.63 99.68 233.25 82.78 220 67 C 219.49 66.33 218.99 65.66 218.47 64.97 C 213.88 59.03 207.56 54.76 201.63 50.26 C 200.29 49.22 198.98 48.15 197.69 47.06 C 176.86 29.56 148.19 21.83 121.55 21.76 C 119.47 21.75 117.39 21.72 115.3 21.69 C 103.47 21.6 91.78 22.71 81.02 28.04 C 78.96 29.02 76.94 29.67 74.75 30.31 C 64.39 33.71 55.8 39.56 47.49 46.44 C 43.18 50 43.18 50 41 50 C 41 50.66 41 51.32 41 52 C 39.57 53.34 39.57 53.34 37.56 54.94 C 20.46 69.6 8.84 92.36 6.21 114.7 C 5.95 118.78 5.8 122.85 5.75 126.94 C 5.74 127.65 5.73 128.36 5.72 129.09 C 5.75 133.47 6.55 136.9 8 141 C 8.2 143.56 8.2 143.56 8.13 145.88 C 8.11 146.66 8.09 147.44 8.07 148.24 C 8.05 148.82 8.02 149.4 8 150 C 2.9 142.35 2.43 131.05 2 122 C 1.96 121.14 1.92 120.29 1.88 119.4 C 1.16 89.19 13.68 61.77 34 40 C 82.14 -8.77 161.28 -9.43 213.68 33.44 Z" fill="#FCF0D3"/>
<path d="M 161 193 C 161.33 193.33 161.33 193.33 163 195 C 162.01 195.33 161.02 195.66 160 196 C 160 195.34 160 194.68 160 194 C 158.54 194.45 157.08 194.91 155.62 195.38 C 154.81 195.63 154 195.89 153.16 196.15 C 151 197 151 197 149 199 C 148.15 199.33 147.31 199.66 146.44 200 C 144 201 144 201 143 203 C 142.01 203.33 141.02 203.66 140 204 C 139.34 204.99 138.68 205.98 138 207 C 135.35 208.18 132.78 209.22 130.06 210.19 C 129.33 210.46 128.6 210.73 127.85 211.01 C 124.79 212.14 122.29 213 119 213 C 118.67 213.66 118.34 214.32 118 215 C 117.01 214.67 116.02 214.34 115 214 C 115 214.66 115 215.32 115 216 C 113.4 216.2 111.79 216.38 110.19 216.56 C 109.29 216.67 108.4 216.77 107.48 216.88 C 105 217 105 217 102 216 C 102 216.66 102 217.32 102 218 C 96.72 218 91.44 218 86 218 C 86 217.34 86 216.68 86 216 C 84.68 216.16 84.68 216.16 78 217 C 78 216.34 78 215.68 78 215 C 77.17 215.16 77.17 215.16 73 216 C 73 215.34 73 214.68 73 214 C 71.68 214.33 70.36 214.66 69 215 C 69 214.34 69 213.68 69 213 C 67.52 212.67 67.52 212.67 60 211 C 64.02 209.99 65.79 210.13 69.75 210.88 C 73.39 211.54 77.01 212.16 80.69 212.56 C 84 213 84 213 85 214 C 88.33 214.25 91.67 214.19 95 214.19 C 95.46 214.19 95.46 214.19 97.79 214.22 C 105.43 214.24 112.15 213.47 119 210 C 119.72 209.88 120.44 209.75 121.19 209.62 C 128.24 208.06 135.65 204.47 140.69 199.25 C 142 198 142 198 145 198 C 145 197.34 145 196.68 145 196 C 145.66 196 146.32 196 147 196 C 147 195.34 147 194.68 147 194 C 151.61 191.47 156.01 191.78 161 193 Z" fill="#EBAC8F"/>
<path d="M 17 63 C 17.33 63.66 17.66 64.32 18 65 C 17.19 67.22 16.27 69.4 15.31 71.56 C 15.17 71.88 15.17 71.88 14.48 73.46 C 13.66 75.31 12.83 77.15 12 79 C 11.21 80.79 10.42 82.58 9.62 84.38 C 9.09 85.57 8.55 86.77 8 88 C 8.33 87.67 8.66 87.34 9 87 C 10.33 86.64 11.66 86.3 13 86 C 12.64 90.79 11.83 94.71 10.06 99.19 C 6.65 108.24 5.84 117.34 5.75 126.94 C 5.74 127.65 5.73 128.36 5.72 129.09 C 5.75 133.47 6.55 136.9 8 141 C 8.2 143.55 8.2 143.55 8.12 145.88 C 8.11 146.66 8.09 147.44 8.07 148.24 C 8.05 148.82 8.02 149.4 8 150 C 2.9 142.35 2.43 131.05 2 122 C 1.98 121.57 1.98 121.57 1.88 119.4 C 1.41 99.49 6.94 81.45 16 64 C 16.33 63.67 16.66 63.34 17 63 Z" fill="#FDE7D2"/>
<path d="M 198 23 C 195 24 195 24 192.21 22.67 C 191.13 22.04 190.05 21.4 188.94 20.75 C 184.14 18.02 179.54 16.02 174.2 14.61 C 171 13.72 168.04 12.33 165 11 C 155.15 7.28 146.03 5.74 135.53 5.99 C 132.15 6.06 129.25 5.92 126 5 C 120.86 4.68 116.06 5.12 111 6 C 109.82 5.98 108.65 5.96 107.44 5.94 C 104 6 104 6 101.71 6.96 C 98.48 8.2 95.64 8.42 92.19 8.62 C 91.61 8.66 91.61 8.66 88.67 8.85 C 88.23 8.88 88.23 8.88 86 9 C 88.66 7.22 89.93 6.63 92.91 5.96 C 93.68 5.8 94.44 5.63 95.22 5.45 C 96.02 5.28 96.81 5.11 97.62 4.94 C 98.39 4.76 99.16 4.59 99.96 4.41 C 132.04 -2.6 170.78 4.29 198 23 Z" fill="#FEE6ED"/>
<path d="M 240 65 C 243.08 67.82 244.96 70.44 246.77 74.19 C 247.26 75.21 247.76 76.23 248.26 77.27 C 248.77 78.36 249.29 79.44 249.81 80.56 C 250.34 81.69 250.88 82.81 251.42 83.97 C 263.54 109.96 271.42 137.54 271.25 166.38 C 271.26 167.69 271.27 169 271.27 170.36 C 271.27 171.63 271.27 172.9 271.27 174.21 C 271.26 175.35 271.26 176.49 271.26 177.66 C 270.97 181.39 270.14 184.44 269 188 C 267.97 184.9 268.21 183.3 268.72 180.16 C 270.88 163.7 268.54 147.64 264.63 131.67 C 263.64 127.47 262.81 123.24 262 119 C 261.67 119 261.34 119 261 119 C 260.77 117.97 260.54 116.95 260.3 115.89 C 258.52 108.25 256.57 101.26 252.95 94.23 C 252 92 252 92 252 88 C 251.34 88 250.68 88 250 88 C 249.84 87.17 249.84 87.17 249 83 C 248.34 83 247.68 83 247 83 C 246.89 82.5 246.89 82.5 246.31 80 C 245.23 76.11 243.31 73.1 241.02 69.8 C 240 68 240 68 240 65 Z" fill="#FEE6EE"/>
<path d="M 173 197 C 180.87 196.69 188.6 197.76 196.27 199.52 C 202.04 200.53 207.97 200.24 213.81 200.25 C 214.51 200.25 215.21 200.25 215.93 200.26 C 225.17 200.27 233.99 199.87 243 197.66 C 246.09 196.98 248.85 196.89 252 197 C 251.01 197.33 250.02 197.66 249 198 C 248.67 198.66 248.34 199.32 248 200 C 247.01 199.67 246.02 199.34 245 199 C 244.67 199.66 244.34 200.32 244 201 C 241.03 201 238.06 201 235 201 C 235 201.66 235 202.32 235 203 C 232.03 202.67 229.06 202.34 226 202 C 226 202.66 226 203.32 226 204 C 219.4 204 212.8 204 206 204 C 206 203.34 206 202.68 206 202 C 202.37 202.33 198.74 202.66 195 203 C 195 202.34 195 201.68 195 201 C 193.02 201.33 191.04 201.66 189 202 C 189 201.34 189 200.68 189 200 C 186.69 200.33 184.38 200.66 182 201 C 182 200.34 182 199.68 182 199 C 180.35 199.33 178.7 199.66 177 200 C 177 199.34 177 198.68 177 198 C 175.68 197.67 174.36 197.34 173 197 Z" fill="#FCC8C3"/>
<path d="M 17 63 C 17.33 63.66 17.66 64.32 18 65 C 17.19 67.22 16.27 69.4 15.31 71.56 C 15.03 72.2 14.76 72.84 14.47 73.49 C 13.31 76.15 12.11 78.77 10.81 81.36 C 3.02 97.05 4.31 115.93 4 133 C 3.67 133 3.34 133 3 133 C 0.32 108.22 4.55 86.06 16 64 C 16.33 63.67 16.66 63.34 17 63 Z" fill="#FEE4F0"/>
<path d="M 10 157 C 15.38 162.2 20.3 167.32 21 175 C 21.96 176.69 22.95 178.36 24 180 C 24 180.66 24 181.32 24 182 C 24.66 182 25.32 182 26 182 C 26 182.66 26 183.32 26 184 C 26.99 184.33 27.98 184.66 29 185 C 28.67 186.32 28.34 187.64 28 189 C 27.01 188.67 26.02 188.34 25 188 C 25 186.68 25 185.36 25 184 C 24.42 183.96 23.84 183.92 23.25 183.88 C 19.88 182.57 18.56 180.1 17 177 C 16.18 174.81 15.48 172.61 14.79 170.38 C 13.7 167.09 12.25 163.99 10.77 160.85 C 10 159 10 159 10 157 Z" fill="#EEA296"/>
<path d="M 60 210 C 61.06 210.13 62.12 210.27 63.22 210.4 C 63.56 210.45 63.56 210.45 65.3 210.66 C 71.72 211.46 71.72 211.46 73.86 211.74 C 75.29 211.91 76.73 212.07 78.18 212.22 C 81.94 212.62 84.66 213.33 88 215 C 90.41 215.29 92.83 215.49 95.25 215.62 C 96.51 215.7 97.78 215.77 99.08 215.85 C 100.04 215.9 101.01 215.95 102 216 C 102 216.66 102 217.32 102 218 C 96.72 218 91.44 218 86 218 C 86 217.34 86 216.68 86 216 C 83.36 216.33 80.72 216.66 78 217 C 78 216.34 78 215.68 78 215 C 76.35 215.33 74.7 215.66 73 216 C 73 215.34 73 214.68 73 214 C 71.68 214.33 70.36 214.66 69 215 C 69 214.34 69 213.68 69 213 C 67.52 212.67 67.52 212.67 60 211 C 60 210.67 60 210.34 60 210 Z" fill="#F0A3A0"/>
<path d="M 40 34 C 40.66 34.33 41.32 34.66 42 35 C 40.42 38.85 37.95 41.29 35 44.19 C 34.11 45.07 33.23 45.95 32.31 46.86 C 30 49 30 49 28 50 C 27.69 50.78 27.38 51.57 27.06 52.38 C 26.01 54.98 25.18 56.28 23 58 C 22.34 58 21.68 58 21 58 C 20.67 59.65 20.34 61.3 20 63 C 19.34 63 18.68 63 18 63 C 19.24 58.69 20.7 55.69 23.56 52.25 C 24.27 51.4 24.98 50.55 25.7 49.67 C 30.32 44.31 34.95 38.95 40 34 Z" fill="#FEEAEA"/>
<path d="M 32 192 C 36.28 193.88 41.86 196.72 44 201 C 45.9 201.7 47.81 202.4 49.72 203.07 C 53.43 204.58 56.69 206.77 60 209 C 57.04 210.48 55.18 209.75 52 209 C 36.1 201.3 36.1 201.3 32.62 194.19 C 32.42 193.47 32.21 192.74 32 192 Z" fill="#F09F9C"/>
<path d="M 114.75 212.94 C 115.55 212.95 116.35 212.96 117.17 212.97 C 117.78 212.98 118.38 212.99 119 213 C 118.67 213.66 118.34 214.32 118 215 C 117.01 214.67 116.02 214.34 115 214 C 115 214.66 115 215.32 115 216 C 105.89 217.3 97.13 216.69 88 216 C 88 215.67 88 215.34 88 215 C 89.25 214.94 90.51 214.88 91.8 214.82 C 93.45 214.73 95.1 214.65 96.75 214.56 C 97.58 214.53 98.4 214.49 99.25 214.45 C 100.05 214.4 100.85 214.36 101.67 214.32 C 102.41 214.28 103.14 214.25 103.89 214.21 C 107.64 213.84 110.93 212.88 114.75 212.94 Z" fill="#EE9B93"/>
<path d="M 161 193 C 161.66 193.66 162.32 194.32 163 195 C 162.01 195.33 161.02 195.66 160 196 C 160 195.34 160 194.68 160 194 C 158.54 194.45 157.08 194.91 155.62 195.38 C 155.22 195.5 155.22 195.5 153.16 196.15 C 151 197 151 197 149 199 C 148.01 198.67 147.02 198.34 146 198 C 146.19 196.12 146.19 196.12 147 194 C 151.28 191.19 156.21 191.83 161 193 Z" fill="#EA968F"/>
<path d="M 206 29 C 214.1 32.57 220.97 39.64 227 46 C 226.67 46.66 226.34 47.32 226 48 C 222.11 44.83 218.55 41.55 215 38 C 212.61 35.87 210.21 33.77 207.79 31.67 C 207.2 31.12 206.61 30.57 206 30 C 206 29.67 206 29.34 206 29 Z" fill="#FEE7F1"/>
<path d="M 10 157 C 12.5 159.38 14.59 161.95 16.69 164.69 C 17.31 165.5 17.93 166.3 18.57 167.14 C 19.04 167.75 19.52 168.37 20 169 C 19.01 169.99 18.02 170.98 17 172 C 13.69 168.2 10 162.16 10 157 Z" fill="#EAB39C"/></svg>