<svg xmlns="http://www.w3.org/2000/svg" width="265" height="190" viewBox="0 0 265 190"><path d="M 174.43 24.5 C 177.62 26.37 179.36 26.5 183 26 C 185.63 24.73 185.63 24.73 188.13 23.07 C 193.88 19.27 199.1 17.97 206 19 C 210.35 21.58 212.97 24.47 214.52 29.36 C 215.17 32.94 215.4 36.5 215.5 40.13 C 215.53 40.81 215.56 41.49 215.59 42.19 C 215.59 46 215.02 48.45 212.68 51.37 C 210 54 210 54 206.69 56 C 204 58 204 58 203.25 60.75 C 204.31 65.36 206.71 68.65 210 72 C 213.47 74.09 215.94 74.41 220 74 C 225.02 72.06 229.18 68.81 233.55 65.72 C 239.26 61.72 243.88 59 251 59 C 255.94 61.58 258.26 65.87 260 71 C 263.82 86.03 265.09 103.57 258.05 117.93 C 257.06 119.5 257.06 119.5 255 122 C 254.4 122.81 253.8 123.61 253.19 124.44 C 251 126 251 126 247.94 126.13 C 238.98 124.2 231.09 117.82 223.92 112.45 C 220.14 110.58 218.04 111.01 214 112 C 208.45 114.73 205.97 118.29 204 124 C 203.75 127 203.75 127 204 129 C 204.89 129.23 205.77 129.46 206.69 129.69 C 210.48 131.2 212.37 132.92 215 136 C 217.2 142.59 216.26 149.55 214 156 C 211.35 159.75 209.97 160.83 205.44 161.63 C 200.5 161.35 196.25 159.18 191.83 157.1 C 188.83 155.94 187.17 155.4 184 156 C 181.6 158.09 181.6 158.09 179.06 160.94 C 163.63 177.43 140.04 187.42 117.7 188.43 C 102.57 188.82 88.42 187.98 74 183 C 72.98 182.67 71.97 182.34 70.92 181.99 C 60.1 178.05 50.99 171.02 42 164 C 41.3 163.5 40.6 162.99 39.88 162.47 C 26.24 151.86 17.33 133.77 12.73 117.52 C 11.19 112.14 9.48 108.35 5.31 104.57 C 3 102 3 102 2.56 98.88 C 3 96 3 96 5 93 C 5.47 89.56 5.06 88.11 3.38 85 C 2 82 2 82 2.31 79.5 C 4.05 76.93 5.26 76.11 7.82 74.45 C 12.68 70.87 14.41 66.83 16.56 61.32 C 17.32 59.52 18.08 57.73 18.85 55.94 C 19.21 55.08 19.58 54.23 19.95 53.35 C 27.74 35.92 42.74 23.2 59 14 C 60.12 13.37 61.23 12.74 62.38 12.09 C 97.96 -6.92 143.65 -0.3 174.43 24.5 Z" fill="#F9D872"/>
<path d="M 44.12 91.89 C 45.98 91.86 47.83 91.83 49.69 91.81 C 50.57 91.79 51.44 91.78 52.35 91.77 C 63.82 91.76 80.4 94.78 89.04 102.92 C 89.88 104.21 90.69 105.53 91.46 106.87 C 96.06 113.2 106.54 119.88 114.12 121.43 C 119.24 121.44 121.82 120.13 126 117 C 129.35 115.48 131.5 116.38 134.91 117.45 C 141.69 119.23 148.97 119.12 155.94 119.25 C 156.56 119.26 156.56 119.26 159.71 119.32 C 171.79 118.8 183.28 113.39 194.38 109.03 C 196.47 108.22 198.55 107.42 200.64 106.61 C 201.25 106.37 201.25 106.37 204.34 105.16 C 210 103.36 215.56 102.85 221.5 102.93 C 222.35 102.94 223.21 102.95 224.09 102.96 C 224.72 102.97 225.35 102.98 226 103 C 224.12 108.75 224.12 108.75 223 111 C 221.14 111.27 221.14 111.27 218.81 111.37 C 214.2 111.82 211.51 112.81 208 116 C 205.24 120.11 203.37 123.94 204 129 C 204.89 129.22 205.77 129.45 206.69 129.68 C 210.48 131.19 212.37 132.91 215 136 C 217.19 142.58 216.26 149.54 214 156 C 211.35 159.74 209.97 160.82 205.44 161.62 C 200.5 161.34 196.25 159.17 191.83 157.09 C 188.82 155.93 187.17 155.39 184 156 C 181.6 158.09 181.6 158.09 179.06 160.93 C 163.63 177.42 140.03 187.41 117.7 188.43 C 102.57 188.81 88.42 187.98 74 183 C 72.98 182.66 71.96 182.33 70.92 181.98 C 60.1 178.05 50.98 171.02 42 164 C 41.3 163.49 40.6 162.98 39.88 162.46 C 26.24 151.85 17.32 133.76 12.73 117.51 C 11.61 113.59 10.17 110.44 8 107 C 8 106.34 8 105.68 8 105 C 8.62 104.8 9.23 104.6 9.87 104.4 C 15.03 102.58 18.53 100.74 22.37 96.81 C 28.87 90.75 35.73 92.08 44.12 91.89 Z" fill="#FBEFC2"/>
<path d="M 210 112 C 209.01 114.01 208 116 206.93 117.96 C 204.9 121.77 203.45 124.56 204 129 C 204.89 129.23 205.77 129.45 206.69 129.69 C 210.48 131.19 212.37 132.92 215 136 C 217.19 142.58 216.26 149.55 214 156 C 211.35 159.74 209.97 160.83 205.44 161.62 C 200.5 161.34 196.25 159.18 191.83 157.09 C 188.83 155.93 187.17 155.4 184 156 C 181.6 158.09 181.6 158.09 179.06 160.94 C 163.63 177.42 140.04 187.42 117.7 188.43 C 102.57 188.81 88.42 187.98 74 183 C 72.98 182.67 71.97 182.33 70.92 181.99 C 60.11 178.05 50.96 171.04 42 164 C 41.27 163.44 40.53 162.87 39.78 162.29 C 31.66 155.68 25.3 147.19 21.83 137.3 C 21.02 135.06 20.05 133.04 18.94 130.94 C 16.83 126.83 14.96 122.53 14 118 C 14.33 117.01 14.66 116.02 15 115 C 15.59 115.8 16.19 116.6 16.8 117.42 C 28.79 133.37 41.22 146.54 59 156 C 59.88 156.49 60.76 156.97 61.66 157.47 C 68.16 160.93 74.92 163.03 82 165 C 82.76 165.22 83.51 165.43 84.29 165.66 C 100.87 170.15 118.44 168.52 135 165 C 135.44 164.92 135.44 164.92 137.67 164.53 C 143.92 163.38 149.32 160.77 155 158 C 156.29 157.4 157.58 156.81 158.87 156.21 C 169.62 151.16 178.58 145.53 186 136 C 186.37 135.64 186.37 135.64 188.25 133.81 C 191.43 130.56 194.19 127.07 197.01 123.51 C 198.75 121.31 200.51 119.14 202.31 117 C 202.76 116.46 203.21 115.93 203.68 115.38 C 205.61 113.37 207.14 112 210 112 Z" fill="#F2DCA3"/>
<path d="M 253 60 C 260.77 67.77 262.69 79.53 263.08 90.16 C 263.03 101 262.13 113.36 255 122 C 254.4 122.8 253.8 123.61 253.19 124.44 C 251 126 251 126 247.94 126.12 C 238.71 124.15 230.45 117.46 223 112 C 223.55 108.63 224.05 106.92 226 104 C 227.87 97.08 228.66 87.56 225.44 81 C 224 78 224 78 223.75 75 C 226.78 67.72 236.09 63.2 243 60 C 246.68 58.86 249.26 58.91 253 60 Z" fill="#E7BB4F"/>
<path d="M 132.77 76.78 C 136.96 80.95 137.34 84.06 137.44 89.94 C 137.41 101.17 133.66 110.09 125.97 118.3 C 122.36 121.43 119.19 122.59 114.33 122.44 C 105.4 120.77 96.09 113.47 90 107 C 90 103 90 103 91.44 100.5 C 93.12 96.75 92.97 95.07 92.82 91.07 C 92.99 87.92 92.99 87.92 94 85 C 98.32 81.64 102.9 79.88 108 78 C 108.41 77.82 108.41 77.82 110.48 76.92 C 117.17 74.19 126.51 72.76 132.77 76.78 Z" fill="#E5BC4B"/>
<path d="M 209.38 21 C 214.62 27 215.29 32.38 215.5 40.12 C 215.51 40.47 215.51 40.47 215.59 42.19 C 215.59 45.94 215.03 48.45 212.76 51.38 C 210.13 53.88 208.63 54.95 205.19 55.88 C 204.4 56.1 203.6 56.32 202.79 56.55 C 202.21 56.7 201.6 56.85 201 57 C 200.47 56.07 199.96 55.14 199.41 54.18 C 194.12 44.93 188.13 36.91 181 29 C 181.66 28.67 182.31 28.34 183 28 C 183.34 27.01 183.66 26.02 184 25 C 185.93 23.65 185.93 23.65 188.31 22.38 C 189.09 21.95 189.88 21.52 190.68 21.09 C 196.84 18.21 203.44 17.48 209.38 21 Z" fill="#E8BD51"/>
<path d="M 202 130 C 208.65 129.79 208.65 129.79 211.81 131.69 C 215.29 135.37 216.1 138.35 216.25 143.31 C 216.08 149.22 215.38 154.05 211.88 159 C 208.85 161.11 206.95 161.67 203.26 161.43 C 198.08 160.45 192.66 158.98 189.21 154.86 C 188.81 154.25 188.41 153.63 188 153 C 188.42 152.43 188.85 151.86 189.29 151.27 C 194.2 144.47 198.16 137.44 202 130 Z" fill="#E5BB4E"/>
<path d="M 59 59 C 61.87 61.45 63.61 63.25 64.44 67 C 64.66 70.69 64.11 72.83 62.12 75.94 C 58.64 79.32 55.96 79.39 51.26 79.36 C 47.67 78.79 46.13 76.8 44 74 C 42.57 71.13 42.69 69.19 43 66 C 44.62 62.99 46.1 60.74 48.75 58.56 C 52.34 57.67 55.53 57.84 59 59 Z" fill="#502D45"/>
<path d="M 197 109 C 193.19 110.47 189.38 111.92 185.56 113.38 C 184.49 113.79 183.42 114.2 182.32 114.62 C 165 121.19 145.59 122.91 128 116 C 128.33 115.34 128.66 114.68 129 114 C 132.31 114.5 135.44 115.12 138.66 116.03 C 143.13 117.15 147.35 117.27 151.94 117.19 C 152.73 117.18 153.52 117.17 154.34 117.16 C 162.57 117.03 169.05 116.68 176.52 113.05 C 180.39 111.41 184.41 110.55 188.5 109.61 C 194.3 108.19 194.3 108.19 197 109 Z" fill="#F4DB88"/>
<path d="M 90 103 C 91.84 104.84 93.65 106.68 95.44 108.56 C 97.63 110.65 99.23 111.87 102 113 C 102 113.66 102 114.32 102 115 C 102.43 115.14 102.43 115.14 104.62 115.88 C 106.73 116.58 108.81 117.32 110.88 118.12 C 114.76 119.21 117.98 119.14 122 119 C 122.33 118.01 122.66 117.02 123 116 C 124.96 114.6 126.95 113.26 129 112 C 129 115 129 115 127.54 116.57 C 126.91 117.08 126.28 117.6 125.62 118.12 C 125 118.64 124.37 119.16 123.73 119.7 C 120.7 121.98 118.21 122.47 114.4 122.4 C 105.46 120.91 96.05 113.43 90 107 C 90 105.68 90 104.36 90 103 Z" fill="#DEBF64"/>
<path d="M 204 130 C 207.37 129.62 208.77 129.86 211.69 131.69 C 215.32 135.32 216.1 138.29 216.25 143.31 C 216.08 149.22 215.38 154.05 211.88 159 C 207.87 161.78 205.81 161.54 201 161 C 200.01 160.34 199.02 159.68 198 159 C 198.42 159 198.42 159 200.52 158.99 C 201.61 158.95 202.69 158.91 203.81 158.88 C 204.89 158.85 205.97 158.83 207.08 158.8 C 210 158 210 158 211.86 155.42 C 213.14 151.57 213.43 148.43 213.44 144.38 C 213.46 143.08 213.48 141.79 213.5 140.46 C 212.93 136.49 212.15 135.38 209 133 C 206.25 131.75 206.25 131.75 204 131 C 204 130.67 204 130.34 204 130 Z" fill="#F7B972"/>
<path d="M 67 91 C 67 91.66 67 92.32 67 93 C 68.11 93.1 69.23 93.21 70.38 93.31 C 70.97 93.43 70.97 93.43 74 94 C 74.66 94.99 75.32 95.98 76 97 C 75.08 96.72 74.15 96.45 73.2 96.16 C 62.13 93.02 51.47 92.24 40 92 C 40 91.67 40 91.34 40 91 C 43.19 90.8 46.37 90.62 49.56 90.44 C 50.46 90.38 51.35 90.33 52.28 90.27 C 57.36 89.99 61.99 90.07 67 91 Z" fill="#F3DA83"/>
<path d="M 6 75 C 6.66 75.33 7.32 75.66 8 76 C 7.48 76.35 6.97 76.7 6.44 77.06 C 5 79 5 79 5.06 82.44 C 6.06 86.21 7.01 87.59 10 90 C 8.75 93.74 7.37 94.19 4 96 C 4.23 94.8 4.45 93.61 4.69 92.38 C 5.27 88.05 3.97 85.86 2 82 C 2.8 78.79 3.66 77.34 6 75 Z" fill="#FCD49A"/>
<path d="M 43 66 C 43.33 66.17 43.33 66.17 45 67 C 45.25 68.11 45.49 69.23 45.75 70.38 C 47 74 47 74 49.81 75.88 C 52.56 76.85 55.12 77.58 58 78 C 58 78.33 58 78.66 58 79 C 49.99 79.79 49.99 79.79 46 76.62 C 43.06 72.76 42.9 70.82 43 66 Z" fill="#5A3830"/></svg>