<svg version="1.1" xmlns="http://www.w3.org/2000/svg" style="display: block;" viewBox="250.2 266.2 1551.7 1535.7" width="776" height="768">

<path transform="translate(0,0)" fill="rgb(46,38,34)" d="M 1017.69 297.445 C 1019.24 297.345 1020.8 297.285 1022.35 297.265 C 1063.28 296.828 1099.64 307.75 1134.2 329.395 C 1154.31 341.983 1175.23 363.083 1192.66 379.718 L 1256.56 441.176 L 1455.5 632.848 L 1629 633.047 C 1628.36 689.794 1628.84 747.363 1628.93 804.139 C 1662.55 837.523 1696.75 870.321 1731.51 902.516 C 1744.36 914.597 1756.92 928.119 1770.09 939.537 L 1769.94 1439.19 L 1770.02 1582.14 C 1770.01 1604.37 1771.03 1644.92 1767.78 1665.13 C 1763.89 1690.76 1751.97 1714.49 1733.74 1732.91 C 1689.54 1777.28 1643.69 1771.49 1586.45 1771.49 L 1464.05 1771.37 L 1033.25 1771.6 L 420.977 1771.49 C 378.209 1771.36 348.748 1763.01 317.205 1732.75 C 274.237 1691.53 281.589 1638.89 281.71 1585.21 L 281.647 1450.34 L 281.823 938.727 C 314.384 909.427 345.645 875.791 378.203 846.121 C 391.911 833.629 408.676 817.753 420.839 804.144 L 420.739 632.977 L 592.966 632.976 C 666.94 561.338 741.398 490.2 816.333 419.568 C 880.472 359.582 921.368 302.353 1017.69 297.445 z"/>
<path transform="translate(0,0)" fill="rgb(255,255,255)" d="M 483.026 655.5 L 1140.77 655.024 L 1372.92 655.487 C 1450.95 655.025 1528.99 655.017 1607.03 655.464 L 1607.1 1035.14 C 1584.06 1054.55 1547.76 1078.87 1522.44 1097.14 C 1471.59 1133.66 1421.12 1170.68 1371.02 1208.22 C 1336.65 1234 1300.89 1258.28 1266.6 1284.24 C 1255.98 1292.28 1245.3 1300.29 1234.2 1307.67 C 1177.4 1263.66 1135.41 1225.09 1059.19 1214.86 C 957.568 1201.22 891.807 1252.64 816.953 1309.13 L 568.562 1127.53 L 485.399 1067.32 C 471.646 1057.35 455.288 1046.01 442.224 1035.44 L 442.951 655.786 C 456.055 655.445 469.864 655.578 483.026 655.5 z"/>
<path transform="translate(0,0)" fill="rgb(255,111,97)" d="M 1007.93 1236.58 C 1103.1 1228.8 1153.53 1272.43 1222.71 1327.1 L 1334.34 1415.74 L 1717.12 1718.39 C 1677.15 1754.83 1641.27 1748.94 1590.99 1748.87 L 1471.79 1748.73 L 1043.5 1748.92 L 597.41 1748.8 L 460.875 1748.55 C 410.13 1748.19 375.986 1754.55 335.16 1718.92 C 342.854 1711.92 355.032 1703.05 363.606 1696.15 L 437.59 1637.52 L 650.286 1469.27 L 786.095 1361.48 C 828.221 1327.92 867.062 1295.24 913.922 1268.16 C 945.96 1249.65 971.16 1240.09 1007.93 1236.58 z"/>
<path transform="translate(0,0)" fill="rgb(255,111,97)" d="M 1747.67 963.824 C 1748.29 970.453 1747.72 988.619 1747.7 995.869 L 1747.58 1064.57 L 1747.62 1281.17 L 1747.83 1528.46 L 1747.87 1606.18 C 1747.87 1644.91 1751.59 1665.15 1731.11 1699.71 C 1721.66 1693.87 1707.7 1682.71 1698.59 1675.72 C 1676.66 1658.72 1654.88 1641.52 1633.25 1624.13 L 1464.47 1490.7 C 1394.6 1433.9 1322.54 1379.02 1252.55 1322.42 C 1268.32 1309.6 1289.94 1295.11 1306.91 1282.67 C 1342.61 1256.13 1378.49 1229.85 1414.56 1203.82 C 1505.08 1138.03 1594.6 1070.61 1686.38 1006.59 C 1706.6 992.486 1728.13 978.72 1747.67 963.824 z"/>
<path transform="translate(0,0)" fill="rgb(255,111,97)" d="M 304.084 965.315 C 312.172 968.942 350.827 997.568 360.64 1004.54 C 415.609 1043.58 470.24 1083.09 524.525 1123.08 L 687.444 1241.79 L 748.033 1286.01 C 763.991 1297.5 782.602 1309.87 797.27 1322.57 C 789.168 1330.65 776.482 1340.61 767.426 1347.96 C 749.333 1362.66 731.055 1377.12 712.596 1391.35 L 586.527 1490.8 L 448.358 1600.22 C 406.891 1633.43 363.229 1669.55 320.646 1701.06 C 313.27 1688.96 306.266 1672.73 305.195 1658.5 C 303.192 1631.9 303.964 1604.16 303.968 1577.46 L 303.971 1434.78 L 304.084 965.315 z"/>
<path transform="translate(0,0)" fill="rgb(255,111,97)" d="M 1010.15 319.416 C 1046.55 315.104 1085.78 326.69 1116.99 344.832 C 1144.03 360.546 1164.43 382.538 1186.69 403.943 C 1205.31 421.698 1223.83 439.553 1242.26 457.508 C 1300.94 514.561 1365.25 577.451 1425.29 632.825 C 1388.12 633.251 1350.59 632.953 1313.4 632.907 C 1295.62 617.007 1277.36 599.251 1259.63 582.967 L 1156.46 489.275 C 1118.01 454.406 1092.22 419.986 1038.23 411.285 C 1015.79 408.841 981.406 412.19 962.542 425.503 C 927.131 450.492 893.786 484.416 862.331 514.705 C 821.605 553.922 777.247 592.429 738.218 633.116 L 624.035 633.023 C 651.708 606.962 679.181 580.69 706.452 554.209 L 839.776 427.592 C 894.634 375.894 929.287 327.647 1010.15 319.416 z"/>
<path transform="translate(0,0)" fill="rgb(255,255,255)" d="M 1010.04 433.382 C 1048.75 428.068 1076.56 444.68 1103.56 469.935 C 1162.18 524.776 1223.95 577.043 1281.44 633.07 L 1040.75 632.78 L 769.768 632.919 C 782.43 619.86 797.131 606.849 810.468 594.287 C 835.747 570.028 861.224 545.975 886.896 522.131 C 904.13 505.72 921.47 489.422 938.916 473.237 C 964.936 449.077 973.536 438.591 1010.04 433.382 z"/>
<path transform="translate(0,0)" fill="rgb(255,111,97)" d="M 420.82 835.837 C 421.562 842.147 421.128 859.589 421.125 866.982 L 421.026 933.492 C 409.102 946.032 381.703 971.047 368.246 982.401 C 358.258 974.581 346.402 966.462 335.966 959.017 C 327.355 953.083 318.707 947.205 310.021 941.381 C 322.878 928.136 339.082 914.204 352.599 901.067 C 375.148 879.152 397.661 857.084 420.82 835.837 z"/>
<path transform="translate(0,0)" fill="rgb(255,111,97)" d="M 1629.03 835.438 C 1634.05 838.997 1654.32 859.508 1660.44 865.179 C 1687.24 890.009 1713.75 917.694 1741.26 941.533 C 1735.29 946.503 1725.25 952.922 1718.59 957.463 C 1706.79 965.128 1695.14 973.014 1683.64 981.118 C 1668.58 969.495 1643.38 945.819 1629.81 932.207 C 1628.52 901.719 1629.12 866.179 1629.03 835.438 z"/>
<path transform="translate(0,0)" fill="rgb(255,255,255)" d="M 1629.39 963.543 C 1632.66 965.103 1659.87 990.42 1664.25 994.653 C 1659.98 998.366 1656.55 1000.67 1651.83 1003.79 C 1644.4 1009.05 1637.17 1014.19 1629.42 1018.97 C 1628.73 1002.27 1629.13 980.531 1629.39 963.543 z"/>
<path transform="translate(0,0)" fill="rgb(255,255,255)" d="M 419.799 963.845 C 421.775 965.823 420.676 1012.97 420.366 1019.89 L 401.48 1006.41 C 396.634 1002.66 391.741 998.974 386.804 995.345 C 397.209 985.086 409.133 974.058 419.799 963.845 z"/>
</svg>