<svg xmlns="http://www.w3.org/2000/svg" width="321" height="277" viewBox="0 0 321 277"><path d="M 187 11 C 190.51 14.05 193.42 17.13 196 21 C 197.21 20.71 198.41 20.42 199.66 20.12 C 201.27 19.75 202.89 19.37 204.5 19 C 205.29 18.81 206.08 18.62 206.9 18.42 C 217.81 15.92 228.05 16.63 237.75 22.69 C 246.89 29.39 251.23 37.47 255 48 C 255 48.66 255 49.32 255 50 C 255.63 49.98 256.26 49.95 256.91 49.93 C 267.24 49.71 274.94 52.11 283.62 57.69 C 291.12 64.98 295.92 74.43 296.24 84.93 C 296.29 89.62 296.18 94.31 296 99 C 296.9 99.27 297.79 99.53 298.72 99.81 C 306.97 102.81 313.14 109.2 317 117 C 321.21 129.54 319.56 140.18 314.13 151.84 C 309.47 161.22 303.45 169.78 297 178 C 296.45 178.71 295.91 179.43 295.35 180.16 C 290.45 186.45 285.15 192.16 279.49 197.77 C 278.06 199.19 276.64 200.62 275.22 202.05 C 267.96 209.3 260.6 215.43 251.88 220.81 C 247.17 224.26 247.17 224.26 246.53 227.1 C 246.81 229.37 246.81 229.37 247.37 231.89 C 248.96 239.73 250.06 250.79 245.81 257.88 C 244.41 259.6 244.41 259.6 243 261 C 242.63 261.38 242.63 261.38 240.75 263.31 C 227.58 271.4 211.99 267.95 197.55 265.66 C 188.9 264.35 188.9 264.35 184.88 267.25 C 184.28 267.7 183.68 268.16 183.07 268.62 C 174.46 274.34 163.77 275.83 153.69 274.5 C 147.67 273.26 142.51 270.46 137.16 267.56 C 130.85 264.45 126.4 265.24 119.69 266.44 C 95.06 270.44 95.06 270.44 84 265 C 82.93 264.48 81.86 263.97 80.75 263.44 C 75.85 259.09 73.37 254.22 72.62 247.69 C 72.49 239.67 73.54 231.87 75 224 C 74.3 223.76 73.6 223.52 72.88 223.27 C 61.94 218.43 52.54 208.21 44 200 C 43.49 199.51 42.97 199.03 42.44 198.52 C 24.85 181.82 4.65 158.13 1.66 133.2 C 1.49 121.99 4.93 114.16 12.68 106.1 C 15.64 103.42 18.41 101.72 22 100 C 22.5 99.67 22.5 99.67 25 98 C 25.22 95.6 25.22 95.6 25.06 92.62 C 24.78 79.63 27.21 68.84 36.19 59.12 C 41.72 53.97 47.07 51.12 54.72 50.89 C 58.9 50.74 62.09 50.52 66 49 C 69.28 44.98 70.61 39.73 72.27 34.89 C 75.27 27.14 82.77 22.38 90 19 C 92.99 17.95 95.85 17.36 99 17 C 99.65 16.92 100.3 16.84 100.96 16.75 C 104.95 16.51 108.17 17 111.93 18.32 C 120.8 21.31 120.8 21.31 125 21 C 128.9 19.01 131.41 15.52 134.15 12.21 C 147.56 -3.92 171.91 0.27 187 11 Z" fill="#FCECCD"/>
<path d="M 121.69 34.31 C 122.07 34.42 122.07 34.42 124 35 C 124.65 38.01 125.11 40.44 124.54 43.49 C 123.77 48.5 123.84 53.44 123.83 58.5 C 123.83 59.62 123.83 60.73 123.82 61.88 C 123.82 64.24 123.82 66.6 123.82 68.95 C 123.82 72.52 123.8 76.09 123.78 79.66 C 123.77 81.96 123.77 84.26 123.77 86.56 C 123.76 87.62 123.76 88.67 123.75 89.75 C 123.77 97.33 124.73 104.54 126 112 C 126.37 114.68 126.69 117.37 127 120.06 C 128.04 128.57 129.19 136.99 131.3 145.31 C 131.56 146.36 131.83 147.4 132.1 148.48 C 132.4 149.64 132.7 150.8 133 152 C 133.16 152.63 133.32 153.26 133.49 153.91 C 134.56 158.12 135.65 162.34 136.74 166.55 C 137.12 168.01 137.5 169.46 137.87 170.92 C 140.11 179.7 142.59 188.2 146.11 196.57 C 147.84 200.86 148.43 204.38 148 209 C 146 211 146 211 143.63 211.19 C 140.15 209.61 139.44 207.53 138.09 204.07 C 137.91 203.56 137.91 203.56 137 201 C 136.78 200.4 136.57 199.8 136.34 199.18 C 128.36 177.03 123.51 154.06 119 131 C 118.83 130.13 118.66 129.26 118.48 128.36 C 115.02 110.64 113.66 93.1 113.74 75.05 C 113.75 72.1 113.74 69.16 113.73 66.21 C 113.71 40.02 113.71 40.02 117.41 35.15 C 119 34 119 34 121.69 34.31 Z" fill="#F5ADA5"/>
<path d="M 201.06 34.94 C 201.54 34.95 201.54 34.95 204 35 C 207.6 42.46 207.16 51.13 207.17 59.24 C 207.17 59.72 207.17 59.72 207.18 62.15 C 207.18 64.18 207.18 66.21 207.18 68.24 C 207.18 71.27 207.2 74.3 207.22 77.33 C 207.27 94.97 205.81 112.1 202.56 129.44 C 202.36 130.58 202.15 131.71 201.94 132.88 C 200.52 140.65 198.84 148.33 197 156 C 196.82 156.74 196.65 157.47 196.47 158.23 C 195.36 162.83 194.18 167.42 193 172 C 192.81 172.72 192.63 173.43 192.44 174.16 C 184.28 205.72 184.28 205.72 180 210 C 177.56 210.19 177.56 210.19 175 210 C 174.34 209.34 173.68 208.68 173 208 C 173.28 201.23 175.44 195.29 177.68 188.94 C 181.74 177.09 185.12 165.19 188 153 C 188.22 152.06 188.44 151.12 188.67 150.15 C 192.35 134.27 194.68 118.27 196.62 102.1 C 196.84 100.31 197.07 98.52 197.32 96.73 C 198.3 89.57 198.15 82.34 198.13 75.13 C 198.12 72.81 198.13 70.49 198.13 68.18 C 198.13 66.69 198.13 65.2 198.13 63.71 C 198.13 63.03 198.13 62.34 198.14 61.64 C 198.12 57.65 197.71 53.92 197 50 C 196.91 47.57 196.87 45.13 196.87 42.69 C 196.87 41.46 196.87 40.22 196.86 38.95 C 197.04 35.02 197.04 35.02 201.06 34.94 Z" fill="#F5ADA5"/>
<path d="M 65.5 62.75 C 68 63 68 63 70 65 C 70.51 67.04 70.51 67.04 70.89 69.56 C 71.04 70.49 71.19 71.43 71.34 72.39 C 71.5 73.39 71.65 74.4 71.81 75.44 C 77.52 110.06 90.88 142.47 108 173 C 108.4 173.71 108.8 174.43 109.21 175.16 C 116.03 187.24 123.3 199.39 131.83 210.35 C 133.46 212.65 133.36 214.25 133 217 C 132.34 217.66 131.68 218.32 131 219 C 127.71 218.89 126.35 218.35 124 216.02 C 102.9 186.84 85.1 153.92 73 120 C 72.63 118.96 72.25 117.93 71.87 116.86 C 70.85 113.92 69.91 110.97 69 108 C 68.8 107.36 68.6 106.71 68.4 106.05 C 59.97 78.38 59.97 78.38 61 65 C 63 63 63 63 65.5 62.75 Z" fill="#F4ADA5"/>
<path d="M 260 64 C 260.99 79.25 256.04 94.45 252 109 C 251.73 109.99 251.46 110.98 251.19 112 C 249.33 118.56 246.65 124.73 244 131 C 243.59 131.97 243.18 132.94 242.76 133.95 C 231.44 160.53 218.03 185.61 202.06 209.69 C 201.53 210.51 201 211.33 200.45 212.17 C 199.94 212.93 199.43 213.68 198.91 214.45 C 198.47 215.11 198.03 215.78 197.57 216.46 C 195.49 218.51 193.87 218.75 191 219 C 190.34 218.67 189.68 218.34 189 218 C 188.02 211.54 191.37 207.74 194.88 202.69 C 196.08 200.89 197.29 199.09 198.49 197.29 C 199.09 196.39 199.69 195.5 200.3 194.57 C 204.01 188.95 207.38 183.12 210.71 177.27 C 211.6 175.7 212.5 174.14 213.4 172.57 C 222.24 157.23 229.37 141.4 236 125 C 236.44 123.92 236.88 122.84 237.33 121.73 C 240.3 114.26 242.6 106.78 244.56 99 C 244.86 97.84 245.16 96.69 245.46 95.5 C 247.58 87.12 249.35 78.71 250.76 70.18 C 251.11 68.11 251.55 66.05 252 64 C 254.86 62.57 256.93 63.4 260 64 Z" fill="#F5ADA6"/>
<path d="M 30.31 111.56 C 33 112 33 112 34.97 114.57 C 37.02 118.03 38.61 121.54 40.12 125.25 C 48.48 144.92 60.1 162.8 74 179 C 74.97 180.16 75.95 181.32 76.92 182.48 C 87.16 194.59 98 206.15 110.48 215.99 C 114.46 219.16 118.22 222.58 122 226 C 121.12 229.87 121.12 229.87 120 231 C 116.54 231.52 115.14 231.08 112.12 229.23 C 104.07 222.83 96.39 216.15 89 209 C 88.34 208.36 87.69 207.73 87.01 207.08 C 78.8 199.1 70.98 191.09 64 182 C 63.2 181 62.41 179.99 61.59 178.96 C 55.26 170.95 49.49 162.61 44 154 C 43.38 153.04 42.77 152.07 42.13 151.08 C 38.34 144.88 35.18 138.4 32.12 131.81 C 31.93 131.39 31.93 131.39 30.93 129.29 C 28.44 123.78 27.27 119.05 27 113 C 28 112 28 112 30.31 111.56 Z" fill="#F4ACA5"/>
<path d="M 290.5 111.75 C 293 112 293 112 295 114 C 294.69 119.26 292.6 123.71 290.44 128.44 C 290.26 128.83 290.26 128.83 289.35 130.83 C 277.79 156.06 261.66 180.09 241.59 199.41 C 239.89 201.11 238.36 202.91 236.81 204.75 C 229.77 212.85 221.62 219.75 213.06 226.19 C 212.44 226.67 211.81 227.15 211.16 227.65 C 208.46 229.63 206.48 230.94 203.12 231.36 C 201 231 201 231 200 230 C 199.54 227.8 199.54 227.8 200 225 C 202.06 222.85 204 221.09 206.31 219.25 C 206.95 218.73 207.58 218.2 208.24 217.66 C 210.15 216.09 212.07 214.54 214 213 C 223.9 205.03 232.76 196.69 241 187 C 241.82 186.06 242.64 185.11 243.49 184.14 C 260.78 164.16 276.36 141.49 285.06 116.37 C 286.31 113.22 287.05 112.09 290.5 111.75 Z" fill="#F4ADA5"/>
<path d="M 77 228 C 80.48 229.3 83.55 230.83 86.7 232.79 C 87.57 233.34 88.45 233.88 89.35 234.44 C 90.26 235.02 91.18 235.59 92.12 236.19 C 93.07 236.78 94.01 237.37 94.99 237.98 C 96.84 239.14 98.7 240.3 100.55 241.47 C 102.49 242.68 104.45 243.88 106.4 245.06 C 112.57 248.83 118 253.16 123.47 257.86 C 126 260 126 260 129 262 C 129 262.99 129 263.98 129 265 C 95.67 270.74 95.67 270.74 84 265 C 82.93 264.48 81.86 263.97 80.75 263.44 C 75.77 259.03 73.37 254.13 72.59 247.52 C 72.42 240.68 72.98 235.16 76 229 C 76.33 228.67 76.66 228.34 77 228 Z" fill="#F0D1A7"/>
<path d="M 245 228 C 245 228.66 245 229.32 245 230 C 245.66 230 246.32 230 247 230 C 248.99 238.16 250.31 250.45 245.81 257.88 C 244.41 259.6 244.41 259.6 243 261 C 242.26 261.76 241.51 262.53 240.75 263.31 C 226.45 272.09 208.58 267.54 193 265 C 193 264.01 193 263.02 193 262 C 195.11 259.93 197.2 258.09 199.5 256.25 C 200.2 255.69 200.89 255.12 201.61 254.54 C 210.63 247.46 220.47 241.62 230.28 235.69 C 233.65 233.6 236.91 231.36 240.14 229.06 C 242 228 242 228 245 228 Z" fill="#F0D0A6"/>
<path d="M 30.31 111.56 C 33 112 33 112 35.19 114.56 C 37.05 118.11 38.07 121.12 39 125 C 36.59 122.81 35.2 120.74 33.81 117.81 C 33.64 117.45 33.64 117.45 32.77 115.64 C 32.51 115.1 32.26 114.56 32 114 C 30.68 114.33 29.36 114.66 28 115 C 28.21 115.53 28.43 116.07 28.66 116.62 C 29.63 119.03 30.6 121.45 31.56 123.87 C 31.9 124.71 32.24 125.56 32.6 126.42 C 32.92 127.23 33.24 128.03 33.56 128.86 C 33.86 129.61 34.16 130.35 34.47 131.12 C 35 133 35 133 34 135 C 30.29 127.67 27.14 121.3 27 113 C 28 112 28 112 30.31 111.56 Z" fill="#ECB4A7"/>
<path d="M 119 34 C 121.62 34.38 121.62 34.38 124 35 C 124.93 39.33 124.93 42.67 124 47 C 123.67 47 123.34 47 123 47 C 123 43.37 123 39.74 123 36 C 121.02 36.66 119.04 37.32 117 38 C 117 42.29 117 46.58 117 51 C 116.34 50.67 115.68 50.34 115 50 C 114.62 40.36 114.62 40.36 117 36 C 117.66 35.34 118.32 34.68 119 34 Z" fill="#EEB6A9"/>
<path d="M 258 64 C 257.36 64.39 256.73 64.79 256.07 65.2 C 253.54 67.4 253.32 68.57 252.8 71.85 C 252.65 72.78 252.49 73.72 252.32 74.68 C 252.18 75.65 252.03 76.62 251.88 77.62 C 251.57 79.56 251.25 81.49 250.93 83.41 C 250.8 84.27 250.67 85.12 250.53 86.01 C 250.36 86.66 250.18 87.32 250 88 C 249.34 88.33 248.68 88.66 248 89 C 248.42 82.9 249.29 76.93 250.44 70.94 C 250.68 69.65 250.93 68.36 251.18 67.03 C 251.32 66.53 251.32 66.53 252 64 C 254.49 62.75 255.41 63.22 258 64 Z" fill="#EEB6A8"/>
<path d="M 192 207 C 192.33 207.99 192.66 208.98 193 210 C 192.67 210.5 192.67 210.5 191 213 C 191 213.99 191 214.98 191 216 C 196.3 214.64 198.24 211.4 201 207 C 201.66 207.33 202.32 207.66 203 208 C 200.36 211.63 197.72 215.26 195 219 C 194.01 218.84 194.01 218.84 189 218 C 188.67 213.33 189.29 210.83 192 207 Z" fill="#EBAE9F"/>
<path d="M 175 197 C 176.33 200.98 176.07 204.85 176 209 C 179 208 179 208 179.95 206.15 C 180.19 205.42 180.44 204.69 180.69 203.94 C 180.94 203.2 181.19 202.47 181.45 201.71 C 181.63 201.15 181.81 200.58 182 200 C 182.66 200 183.32 200 184 200 C 183.52 201.48 183.04 202.96 182.56 204.44 C 182.3 205.26 182.03 206.08 181.75 206.93 C 181 209 181 209 180 210 C 177.56 210.19 177.56 210.19 175 210 C 174.34 209.34 173.68 208.68 173 208 C 173.31 204.04 173.75 200.76 175 197 Z" fill="#EDBAAD"/>
<path d="M 237 191 C 237.66 191.66 238.32 192.32 239 193 C 236.76 195.32 234.51 197.63 232.25 199.94 C 231.93 200.27 231.93 200.27 230.33 201.94 C 230.02 202.25 230.02 202.25 228.45 203.84 C 228.17 204.13 228.17 204.13 226.74 205.6 C 224.82 207.14 223.4 207.59 221 208 C 221.66 207.34 222.32 206.68 223 206 C 223.45 205.55 223.9 205.1 224.37 204.63 C 225.58 203.42 226.79 202.22 228.01 201.03 C 228.71 200.34 229.41 199.65 230.12 198.94 C 230.79 198.29 231.45 197.64 232.13 196.96 C 233.93 195.07 235.48 193.12 237 191 Z" fill="#EDB3A8"/></svg>