<svg version="1.1" xmlns="http://www.w3.org/2000/svg" style="display: block;" viewBox="0 0 2048 2048" width="1024" height="1024" preserveAspectRatio="none" xmlns:c2pa="http://c2pa.org/manifest"><metadata><c2pa:manifest>AAAMZ2p1bWIAAAAeanVtZGMycGEAEQAQgAAAqgA4m3EDYzJwYQAAAAxBanVtYgAAAEdqdW1kYzJtYQARABCAAACqADibcQN1cm46YzJwYTo1MWZlNWQ3Yi04MTUxLTQzZjEtOGU5MS1hZjQwOTI1YjFmZGIAAAAB4mp1bWIAAAApanVtZGMyYXMAEQAQgAAAqgA4m3EDYzJwYS5hc3NlcnRpb25zAAAAAO1qdW1iAAAAQWp1bWRjYm9yABEAEIAAAKoAOJtxE2MycGEuYWN0aW9ucy52MgAAAAAYYzJzaImFtF9XRzUaKq8LNffCVewAAACkY2JvcqFnYWN0aW9uc4GjZmFjdGlvbmxjMnBhLmNyZWF0ZWRxZGlnaXRhbFNvdXJjZVR5cGV4Rmh0dHA6Ly9jdi5pcHRjLm9yZy9uZXdzY29kZXMvZGlnaXRhbHNvdXJjZXR5cGUvdHJhaW5lZEFsZ29yaXRobWljTWVkaWFrZGVzY3JpcHRpb252Q3JlYXRlZCBieSBSZWNyYWZ0IEFJLgAAAMRqdW1iAAAAQGp1bWRjYm9yABEAEIAAAKoAOJtxE2MycGEuaGFzaC5kYXRhAAAAABhjMnNokSqu66Rl4KQ2NElG3tr0TAAAAHxjYm9ypWpleGNsdXNpb25zgaJlc3RhcnQY22ZsZW5ndGgZEIxkbmFtZW5qdW1iZiBtYW5pZmVzdGNhbGdmc2hhMjU2ZGhhc2hYIHa4BYPaXhc/wCT7iFVZvEMQGWGidBoDi7K1vSMXchI5Y3BhZEkAAAAAAAAAAAAAAAI0anVtYgAAACdqdW1kYzJjbAARABCAAACqADibcQNjMnBhLmNsYWltLnYyAAAAAgVjYm9ypmppbnN0YW5jZUlEeCx4bXA6aWlkOjAzOGM3ZjE1LTY3NzYtNDgyMC04MWJlLTI0MDlkNThmZTE0NnRjbGFpbV9nZW5lcmF0b3JfaW5mb6NkbmFtZWpyZWNyYWZ0LmFpZ3ZlcnNpb254KDgxY2U4MmUyYzVjM2NiZmJlOGM2ZmJlMTc5ZDVmOGQ5MWM0MDljZTF3b3JnLmNvbnRlbnRhdXRoLmMycGFfcnNmMC45MC43aXNpZ25hdHVyZXhNc2VsZiNqdW1iZj0vYzJwYS91cm46YzJwYTo1MWZlNWQ3Yi04MTUxLTQzZjEtOGU5MS1hZjQwOTI1YjFmZGIvYzJwYS5zaWduYXR1cmVyY3JlYXRlZF9hc3NlcnRpb25zgqJjdXJseCpzZWxmI2p1bWJmPWMycGEuYXNzZXJ0aW9ucy9jMnBhLmFjdGlvbnMudjJkaGFzaFgg5tpr47lo/dQu9hea6xZeKQoZgTgMSDkUVzdcPr/49P2iY3VybHgpc2VsZiNqdW1iZj1jMnBhLmFzc2VydGlvbnMvYzJwYS5oYXNoLmRhdGFkaGFzaFggc8yK6cvEPIMrK6gug6pymBQeQem1LB6dh2VXvLCVhFJoZGM6dGl0bGV4GlJlY3JhZnQgQUkgR2VuZXJhdGVkIEltYWdlY2FsZ2ZzaGEyNTYAAAfcanVtYgAAAChqdW1kYzJjcwARABCAAACqADibcQNjMnBhLnNpZ25hdHVyZQAAAAesY2JvctKEWQOwogEmGCGCWQHnMIIB4zCCAYmgAwIBAgIJALfeWmNDUW56MAoGCCqGSM49BAMCMEAxHzAdBgNVBAMMFlJlY3JhZnQgU3RhZ2luZyBEZXYgQ0ExEDAOBgNVBAoMB1JlY3JhZnQxCzAJBgNVBAYTAlVTMB4XDTI2MDYxMjE5NDM1MFoXDTI3MDYxMjE5NDM1MFowNzELMAkGA1UEBhMCVVMxEzARBgNVBAoTClJlY3JhZnQgQUkxEzARBgNVBAMTCnJlY3JhZnQuYWkwWTATBgcqhkjOPQIBBggqhkjOPQMBBwNCAARKaTVbACsg/DeG3LeOxYdID/VA6EFG73E6Oknb+KIiCFJygRUz4ueN2z/t2qYb6CIUvS8RvgOiiClfoqsYtw81o3UwczAMBgNVHRMBAf8EAjAAMA4GA1UdDwEB/wQEAwIGwDATBgNVHSUEDDAKBggrBgEFBQcDBDAdBgNVHQ4EFgQULzHpBen96SL1y4IPHa8MkMshXf0wHwYDVR0jBBgwFoAUAgsqOBrKqpdK//m/kxZo7ZR4ebcwCgYIKoZIzj0EAwIDSAAwRQIgU8hKW0aXvvk8SQgVFNkax69Ym9ae8GsT2RZTQw+B51ACIQC0D4BkEoRD4N0r2ZRkNy0HZaW3WICy/QZGN95ilF4yzFkBvTCCAbkwggFfoAMCAQICCQCc+Wg7T6ATbzAKBggqhkjOPQQDAjBAMR8wHQYDVQQDDBZSZWNyYWZ0IFN0YWdpbmcgRGV2IENBMRAwDgYDVQQKDAdSZWNyYWZ0MQswCQYDVQQGEwJVUzAeFw0yNjA2MTIxOTQwMTZaFw0yODA2MTExOTQwMTZaMEAxHzAdBgNVBAMMFlJlY3JhZnQgU3RhZ2luZyBEZXYgQ0ExEDAOBgNVBAoMB1JlY3JhZnQxCzAJBgNVBAYTAlVTMFkwEwYHKoZIzj0CAQYIKoZIzj0DAQcDQgAEQ9IQBlcVbKaKPYrQSfOhL/00s7xUDC7RinIuLO/I1k99y9yh6oWF9kPxaP+tx1v1PeOL3yrVquJ730H0ZGiDyqNCMEAwDwYDVR0TAQH/BAUwAwEB/zAOBgNVHQ8BAf8EBAMCAYYwHQYDVR0OBBYEFAILKjgayqqXSv/5v5MWaO2UeHm3MAoGCCqGSM49BAMCA0gAMEUCIFQwNImLlYDeQhjgF+ZiqTbgcuzSqmOJw3Q2lQ/hu83FAiEA9O8cLm/xfoVLqB4jtdbuHzi3WL+p2RN+DRGkwpYswVuhY3BhZFkDpAAAAAAAAAAAAAAAAAAAAAAAAAAAAAAAAAAAAAAAAAAAAAAAAAAAAAAAAAAAAAAAAAAAAAAAAAAAAAAAAAAAAAAAAAAAAAAAAAAAAAAAAAAAAAAAAAAAAAAAAAAAAAAAAAAAAAAAAAAAAAAAAAAAAAAAAAAAAAAAAAAAAAAAAAAAAAAAAAAAAAAAAAAAAAAAAAAAAAAAAAAAAAAAAAAAAAAAAAAAAAAAAAAAAAAAAAAAAAAAAAAAAAAAAAAAAAAAAAAAAAAAAAAAAAAAAAAAAAAAAAAAAAAAAAAAAAAAAAAAAAAAAAAAAAAAAAAAAAAAAAAAAAAAAAAAAAAAAAAAAAAAAAAAAAAAAAAAAAAAAAAAAAAAAAAAAAAAAAAAAAAAAAAAAAAAAAAAAAAAAAAAAAAAAAAAAAAAAAAAAAAAAAAAAAAAAAAAAAAAAAAAAAAAAAAAAAAAAAAAAAAAAAAAAAAAAAAAAAAAAAAAAAAAAAAAAAAAAAAAAAAAAAAAAAAAAAAAAAAAAAAAAAAAAAAAAAAAAAAAAAAAAAAAAAAAAAAAAAAAAAAAAAAAAAAAAAAAAAAAAAAAAAAAAAAAAAAAAAAAAAAAAAAAAAAAAAAAAAAAAAAAAAAAAAAAAAAAAAAAAAAAAAAAAAAAAAAAAAAAAAAAAAAAAAAAAAAAAAAAAAAAAAAAAAAAAAAAAAAAAAAAAAAAAAAAAAAAAAAAAAAAAAAAAAAAAAAAAAAAAAAAAAAAAAAAAAAAAAAAAAAAAAAAAAAAAAAAAAAAAAAAAAAAAAAAAAAAAAAAAAAAAAAAAAAAAAAAAAAAAAAAAAAAAAAAAAAAAAAAAAAAAAAAAAAAAAAAAAAAAAAAAAAAAAAAAAAAAAAAAAAAAAAAAAAAAAAAAAAAAAAAAAAAAAAAAAAAAAAAAAAAAAAAAAAAAAAAAAAAAAAAAAAAAAAAAAAAAAAAAAAAAAAAAAAAAAAAAAAAAAAAAAAAAAAAAAAAAAAAAAAAAAAAAAAAAAAAAAAAAAAAAAAAAAAAAAAAAAAAAAAAAAAAAAAAAAAAAAAAAAAAAAAAAAAAAAAAAAAAAAAAAAAAAAAAAAAAAAAAAAAAAAAAAAAAAAAAAAAAAAAAAAAAAAAAAAAAAAAAAAAAAAAAAAAAAAAAAAAAAAAAAAAAAAAAAAAAAAAAAAAAAAAAAAAAAAAAAAAAAAAAAAAAAAAAAAAAAAAAAAAAAAAAAAAAAAAAAAAAAAAA9lhAcRr9mWy3Q6dNjoOeVtA4fQHzxXYVYjaLacMKhu5Z65aN1eW8xfYSK0zbjqeH7q1Ksy46ZQ5r1twJ0otPSPpEIA==</c2pa:manifest></metadata>
<path transform="translate(0,0)" fill="rgb(255,255,255)" d="M 0 0 L 2048 0 L 2048 2048 L 0 2048 L 0 0 z"/>
<path transform="translate(0,0)" fill="rgb(46,38,34)" d="M 992.142 616.5 L 995.849 616.471 L 1420.1 616.568 L 1547.77 616.75 C 1576.78 616.836 1614.28 615.432 1641.93 620.818 C 1678.78 627.69 1712.74 645.408 1739.46 671.702 C 1774.51 706.638 1794.02 746.569 1798.36 796.234 C 1799.64 810.901 1799.2 828.61 1799.29 843.537 L 1799.7 924.503 L 1799.74 1140.48 L 1799.46 1205.6 C 1799.41 1232.01 1800.65 1256.72 1794.7 1282.6 C 1786.7 1318.5 1768.7 1351.39 1742.78 1377.48 C 1715.93 1404.07 1681.89 1422.22 1644.85 1429.7 C 1615.76 1435.4 1575.21 1433.89 1544.42 1433.89 L 1414.83 1433.95 L 911.5 1433.91 L 775.415 1433.93 C 772.659 1353.02 664.479 1334.15 636.128 1409.96 C 633.078 1418.11 632.626 1425.47 631.823 1434.1 L 505.789 1434.06 C 470.967 1434.07 427.017 1436.33 394.332 1428.03 C 360.699 1419.57 329.995 1402.13 305.497 1377.58 C 264.905 1337.68 248.49 1290.03 248.173 1234.01 L 248.017 936.357 L 248.016 850.477 C 248.032 825.339 246.95 794.449 252.295 770.232 C 260.001 734.326 277.992 701.439 304.073 675.585 C 368.384 611.051 427.681 616.908 509.88 616.937 L 632.402 616.981 C 633.035 635.85 636.308 648.735 648.459 663.739 C 660.664 679.071 678.605 688.749 698.121 690.528 C 730.813 693.631 762.161 670.33 771.937 639.654 C 774.349 632.086 774.974 624.839 775.761 616.953 L 992.142 616.5 z"/>
<path transform="translate(0,0)" fill="rgb(255,194,75)" d="M 784.63 627.38 C 843.979 626.422 906.16 627.282 965.691 627.257 L 1351.78 627.336 L 1532.33 627.436 C 1564.59 627.52 1607.87 625.755 1638.55 630.771 C 1685.93 638.517 1728.26 667.533 1755.88 706.591 C 1772.06 729.628 1782.73 756.077 1787.06 783.893 C 1790.65 807.674 1789.29 854.053 1789.31 879.951 L 1789.21 1046.27 L 1789.31 1180.09 C 1789.36 1207.16 1790.9 1247.67 1786.2 1273.14 C 1776.76 1324.35 1748 1364.75 1705.74 1394.11 C 1644.91 1432.06 1592.44 1424.07 1524.47 1424.11 L 1344.84 1424.38 L 784.657 1424.02 C 778.718 1388.78 761.711 1371.31 730.293 1355.98 C 729.584 1286.07 730.631 1214.21 730.677 1144.13 L 730.321 696.18 C 737.189 693.791 743.689 690.454 749.634 686.266 C 771.174 671.237 780.27 652.436 784.63 627.38 z"/>
<path transform="translate(0,0)" fill="rgb(255,194,75)" d="M 446.684 627.445 C 505.392 627.641 564.101 627.543 622.809 627.152 C 628.454 662.367 643.641 681.162 675.924 696.346 L 676.046 1356.1 C 643.69 1371.37 629.266 1388.65 622.548 1424.18 L 489.5 1424.13 C 420.562 1424.28 375.01 1425.74 319.739 1377.04 C 247.128 1313.07 257.913 1232.41 257.855 1146.23 L 257.756 964.181 L 257.783 855.632 C 257.814 833.71 256.906 799.934 260.864 779.589 C 267.536 744.895 283.694 712.728 307.543 686.662 C 346.145 645.056 391.422 629.467 446.684 627.445 z"/>
<path transform="translate(0,0)" fill="rgb(255,255,255)" d="M 685.2 861.253 C 697.212 861.108 709.226 861.065 721.239 861.124 C 721.166 880.24 721.429 899.785 721.094 918.849 L 685.272 918.863 L 685.2 861.253 z"/>
<path transform="translate(0,0)" fill="rgb(255,255,255)" d="M 685.453 1118.24 C 697.389 1118.03 709.328 1117.96 721.266 1118.03 C 721.274 1125.47 721.599 1168.89 720.696 1172.78 C 708.968 1172.84 697.241 1172.84 685.514 1172.77 C 685.239 1154.6 685.218 1136.42 685.453 1118.24 z"/>
<path transform="translate(0,0)" fill="rgb(255,255,255)" d="M 685.03 797.883 C 697.09 797.727 709.152 797.692 721.213 797.778 L 721.184 852.391 C 709.135 852.616 697.084 852.673 685.034 852.56 L 685.03 797.883 z"/>
<path transform="translate(0,0)" fill="rgb(255,255,255)" d="M 685.179 734.946 C 697.175 734.828 709.172 734.827 721.169 734.942 C 721.208 752.294 721.609 771.604 721.088 788.779 C 709.144 788.849 697.2 788.85 685.256 788.784 C 685.013 771.064 685.126 752.696 685.179 734.946 z"/>
<path transform="translate(0,0)" fill="rgb(255,255,255)" d="M 685.289 1245.12 C 697.298 1245.02 709.308 1245 721.317 1245.06 L 721.183 1298.97 L 685.291 1298.95 C 685.106 1281.18 685.276 1262.93 685.289 1245.12 z"/>
<path transform="translate(0,0)" fill="rgb(255,255,255)" d="M 691.393 1181.49 C 701.366 1181.42 711.34 1181.41 721.313 1181.48 C 721.316 1196.14 721.374 1210.84 721.274 1225.5 C 721.204 1235.73 723.276 1235.72 714.25 1235.71 L 685.553 1235.73 C 685.294 1221.33 685.065 1197.24 686.062 1182.24 C 686.105 1181.59 689.453 1181.55 689.927 1181.54 L 691.393 1181.49 z"/>
<path transform="translate(0,0)" fill="rgb(255,255,255)" d="M 687.74 928.47 C 698.952 928.364 710.164 928.37 721.375 928.488 C 721.367 938.439 721.837 970.056 720.906 981.407 C 720.879 981.734 719.234 982.045 719.124 982.071 L 685.376 982.086 C 685.148 968.173 685.164 944.176 685.463 929.506 C 685.475 928.96 687.416 928.557 687.74 928.47 z"/>
<path transform="translate(0,0)" fill="rgb(255,255,255)" d="M 685.1 1054.95 C 697.132 1054.72 709.167 1054.72 721.199 1054.94 L 721.311 1108.7 C 709.25 1108.81 697.188 1108.81 685.126 1108.71 L 685.1 1054.95 z"/>
<path transform="translate(0,0)" fill="rgb(255,255,255)" d="M 685.245 991.18 C 697.216 991.091 709.187 991.089 721.159 991.176 L 721.138 1045.17 L 685.32 1045.18 L 685.245 991.18 z"/>
<path transform="translate(0,0)" fill="rgb(255,255,255)" d="M 689.493 1308.48 L 721.066 1308.55 C 721.122 1322.22 721.087 1335.89 721.055 1349.55 C 721.049 1352.4 720.389 1352.92 717.758 1352.33 C 706.624 1351.8 696.912 1351.56 685.852 1352.83 C 685.869 1345.33 685.476 1318.07 686.222 1309.22 C 686.274 1308.6 688.718 1308.53 689.493 1308.48 z"/>
<path transform="translate(0,0)" fill="rgb(255,255,255)" d="M 685.682 699.369 C 699.908 701.355 707 701.642 721.079 699.161 L 721.077 724.76 C 718.649 727.097 691.871 726.056 685.699 726.052 C 685.575 717.158 685.57 708.263 685.682 699.369 z"/>
</svg>